BenchTwelve Medium-regular.ufo
<glyph name="numbersign" format="1">
  <advance width="1709"/>
  <unicode hex="0023"/>
  <outline>
    <contour>
      <point x="239" y="-205" type="curve" smooth="yes"/>
      <point x="341" y="-205" type="line" smooth="yes"/>
      <point x="363" y="-205"/>
      <point x="383" y="-191"/>
      <point x="391" y="-170" type="curve"/>
      <point x="529" y="418" type="line"/>
      <point x="1008" y="418" type="line"/>
      <point x="870" y="-170" type="line"/>
      <point x="864" y="-187"/>
      <point x="876" y="-205"/>
      <point x="894" y="-205" type="curve" smooth="yes"/>
      <point x="996" y="-205" type="line" smooth="yes"/>
      <point x="1018" y="-205"/>
      <point x="1038" y="-191"/>
      <point x="1046" y="-170" type="curve"/>
      <point x="1184" y="418" type="line"/>
      <point x="1433" y="418" type="line" smooth="yes"/>
      <point x="1476" y="418"/>
      <point x="1500" y="432"/>
      <point x="1500" y="475" type="curve" smooth="yes"/>
      <point x="1500" y="530" type="line" smooth="yes"/>
      <point x="1500" y="573"/>
      <point x="1476" y="587"/>
      <point x="1433" y="587" type="curve" smooth="yes"/>
      <point x="1223" y="587" type="line"/>
      <point x="1282" y="835" type="line"/>
      <point x="1508" y="835" type="line" smooth="yes"/>
      <point x="1551" y="835"/>
      <point x="1575" y="849"/>
      <point x="1575" y="892" type="curve" smooth="yes"/>
      <point x="1575" y="949" type="line" smooth="yes"/>
      <point x="1575" y="992"/>
      <point x="1551" y="1006"/>
      <point x="1508" y="1006" type="curve" smooth="yes"/>
      <point x="1321" y="1006" type="line"/>
      <point x="1463" y="1612" type="line"/>
      <point x="1469" y="1629"/>
      <point x="1457" y="1647"/>
      <point x="1439" y="1647" type="curve" smooth="yes"/>
      <point x="1337" y="1647" type="line" smooth="yes"/>
      <point x="1315" y="1647"/>
      <point x="1295" y="1633"/>
      <point x="1287" y="1612" type="curve"/>
      <point x="1145" y="1006" type="line"/>
      <point x="666" y="1006" type="line"/>
      <point x="808" y="1612" type="line"/>
      <point x="814" y="1629"/>
      <point x="802" y="1647"/>
      <point x="784" y="1647" type="curve" smooth="yes"/>
      <point x="682" y="1647" type="line" smooth="yes"/>
      <point x="660" y="1647"/>
      <point x="640" y="1633"/>
      <point x="632" y="1612" type="curve"/>
      <point x="490" y="1006" type="line"/>
      <point x="276" y="1006" type="line" smooth="yes"/>
      <point x="233" y="1006"/>
      <point x="209" y="992"/>
      <point x="209" y="949" type="curve" smooth="yes"/>
      <point x="209" y="892" type="line" smooth="yes"/>
      <point x="209" y="849"/>
      <point x="233" y="835"/>
      <point x="276" y="835" type="curve" smooth="yes"/>
      <point x="451" y="835" type="line"/>
      <point x="392" y="587" type="line"/>
      <point x="201" y="587" type="line" smooth="yes"/>
      <point x="158" y="587"/>
      <point x="134" y="573"/>
      <point x="134" y="530" type="curve" smooth="yes"/>
      <point x="134" y="475" type="line" smooth="yes"/>
      <point x="134" y="432"/>
      <point x="158" y="418"/>
      <point x="201" y="418" type="curve" smooth="yes"/>
      <point x="353" y="418" type="line"/>
      <point x="215" y="-170" type="line"/>
      <point x="209" y="-187"/>
      <point x="221" y="-205"/>
    </contour>
    <contour>
      <point x="568" y="587" type="line"/>
      <point x="627" y="835" type="line"/>
      <point x="1106" y="835" type="line"/>
      <point x="1047" y="587" type="line"/>
    </contour>
  </outline>
</glyph>
<glyph name="dollar" format="1">
  <advance width="1946"/>
  <unicode hex="0024"/>
  <outline>
    <contour>
      <point x="1001" y="-197" type="curve" smooth="yes"/>
      <point x="1023" y="-197" type="line" smooth="yes"/>
      <point x="1042" y="-197"/>
      <point x="1057" y="-183"/>
      <point x="1057" y="-136" type="curve" smooth="yes"/>
      <point x="1057" y="-40" type="line"/>
      <point x="1586" y="-30"/>
      <point x="1828" y="77"/>
      <point x="1828" y="436" type="curve" smooth="yes"/>
      <point x="1828" y="712"/>
      <point x="1632" y="834"/>
      <point x="1057" y="836" type="curve"/>
      <point x="1057" y="1311" type="line"/>
      <point x="1467" y="1299"/>
      <point x="1583" y="1189"/>
      <point x="1638" y="1191" type="curve" smooth="yes"/>
      <point x="1704" y="1191"/>
      <point x="1712" y="1251"/>
      <point x="1711" y="1250" type="curve" smooth="yes"/>
      <point x="1716" y="1260"/>
      <point x="1716" y="1266"/>
      <point x="1716" y="1276" type="curve" smooth="yes"/>
      <point x="1715" y="1304"/>
      <point x="1700" y="1330"/>
      <point x="1676" y="1341" type="curve" smooth="yes"/>
      <point x="1491" y="1422"/>
      <point x="1332" y="1468"/>
      <point x="1057" y="1474" type="curve"/>
      <point x="1057" y="1584" type="line" smooth="yes"/>
      <point x="1057" y="1630"/>
      <point x="1042" y="1644"/>
      <point x="1023" y="1644" type="curve" smooth="yes"/>
      <point x="1001" y="1644" type="line" smooth="yes"/>
      <point x="982" y="1644"/>
      <point x="967" y="1630"/>
      <point x="967" y="1584" type="curve" smooth="yes"/>
      <point x="967" y="1475" type="line"/>
      <point x="494" y="1473"/>
      <point x="145" y="1403"/>
      <point x="145" y="1045" type="curve" smooth="yes"/>
      <point x="145" y="727"/>
      <point x="405" y="658"/>
      <point x="967" y="656" type="curve"/>
      <point x="967" y="121" type="line"/>
      <point x="432" y="125"/>
      <point x="285" y="259"/>
      <point x="222" y="257" type="curve" smooth="yes"/>
      <point x="192" y="256"/>
      <point x="170" y="244"/>
      <point x="155" y="212" type="curve" smooth="yes"/>
      <point x="155" y="212"/>
      <point x="145" y="172"/>
      <point x="145" y="163" type="curve" smooth="yes"/>
      <point x="145" y="134"/>
      <point x="161" y="107"/>
      <point x="186" y="97" type="curve" smooth="yes"/>
      <point x="462" y="-8"/>
      <point x="662" y="-41"/>
      <point x="967" y="-41" type="curve"/>
      <point x="967" y="-136" type="line" smooth="yes"/>
      <point x="967" y="-183"/>
      <point x="982" y="-197"/>
    </contour>
    <contour>
      <point x="1057" y="123" type="curve"/>
      <point x="1057" y="106" type="line"/>
      <point x="1040" y="106"/>
      <point x="1037" y="659"/>
      <point x="1037" y="664" type="curve" smooth="yes"/>
      <point x="1568" y="663"/>
      <point x="1629" y="577"/>
      <point x="1644" y="418" type="curve" smooth="yes"/>
      <point x="1644" y="239"/>
      <point x="1556" y="132"/>
    </contour>
    <contour>
      <point x="967" y="835" type="line"/>
      <point x="393" y="841"/>
      <point x="354" y="919"/>
      <point x="354" y="1067" type="curve" smooth="yes"/>
      <point x="354" y="1200"/>
      <point x="468" y="1309"/>
      <point x="967" y="1312" type="curve"/>
    </contour>
  </outline>
</glyph>
<glyph name="parenleft" format="1">
  <advance width="839"/>
  <unicode hex="0028"/>
  <outline>
    <contour>
      <point x="649" y="-143" type="curve" smooth="yes"/>
      <point x="688" y="-154"/>
      <point x="726" y="-111"/>
      <point x="726" y="-73" type="curve" smooth="yes"/>
      <point x="726" y="-57" type="line" smooth="yes"/>
      <point x="726" y="12"/>
      <point x="677" y="6"/>
      <point x="620" y="43" type="curve" smooth="yes"/>
      <point x="446" y="157"/>
      <point x="359" y="292"/>
      <point x="359" y="699" type="curve" smooth="yes"/>
      <point x="359" y="1096"/>
      <point x="476" y="1270"/>
      <point x="620" y="1352" type="curve" smooth="yes"/>
      <point x="682" y="1388"/>
      <point x="726" y="1383"/>
      <point x="726" y="1452" type="curve" smooth="yes"/>
      <point x="726" y="1470" type="line" smooth="yes"/>
      <point x="726" y="1508"/>
      <point x="688" y="1551"/>
      <point x="649" y="1540" type="curve" smooth="yes"/>
      <point x="294" y="1438"/>
      <point x="140" y="1100"/>
      <point x="140" y="699" type="curve" smooth="yes"/>
      <point x="140" y="299"/>
      <point x="274" y="-30"/>
    </contour>
  </outline>
</glyph>
<glyph name="three" format="1">
  <advance width="1952"/>
  <unicode hex="0033"/>
  <outline>
    <contour>
      <point x="1003" y="-40" type="curve" smooth="yes"/>
      <point x="1608" y="-40"/>
      <point x="1809" y="137"/>
      <point x="1809" y="386" type="curve" smooth="yes"/>
      <point x="1809" y="564"/>
      <point x="1683" y="697"/>
      <point x="1474" y="723" type="curve"/>
      <point x="1674" y="743"/>
      <point x="1785" y="870"/>
      <point x="1785" y="1048" type="curve" smooth="yes"/>
      <point x="1785" y="1287"/>
      <point x="1641" y="1474"/>
      <point x="1036" y="1474" type="curve" smooth="yes"/>
      <point x="795" y="1474"/>
      <point x="303" y="1401"/>
      <point x="191" y="1368" type="curve" smooth="yes"/>
      <point x="154" y="1358"/>
      <point x="138" y="1341"/>
      <point x="138" y="1311" type="curve" smooth="yes"/>
      <point x="138" y="1307"/>
      <point x="138" y="1303"/>
      <point x="139" y="1298" type="curve" smooth="yes"/>
      <point x="149" y="1245" type="line" smooth="yes"/>
      <point x="153" y="1214"/>
      <point x="174" y="1201"/>
      <point x="200" y="1201" type="curve" smooth="yes"/>
      <point x="207" y="1201"/>
      <point x="215" y="1202"/>
      <point x="224" y="1204" type="curve" smooth="yes"/>
      <point x="263" y="1211"/>
      <point x="671" y="1303"/>
      <point x="1042" y="1303" type="curve" smooth="yes"/>
      <point x="1388" y="1303"/>
      <point x="1552" y="1238"/>
      <point x="1570" y="1098" type="curve" smooth="yes"/>
      <point x="1588" y="963"/>
      <point x="1534" y="811"/>
      <point x="1115" y="811" type="curve" smooth="yes"/>
      <point x="879" y="811" type="line" smooth="yes"/>
      <point x="847" y="811"/>
      <point x="847" y="782"/>
      <point x="847" y="768" type="curve" smooth="yes"/>
      <point x="847" y="686" type="line" smooth="yes"/>
      <point x="847" y="672"/>
      <point x="847" y="643"/>
      <point x="879" y="643" type="curve" smooth="yes"/>
      <point x="1115" y="643" type="line" smooth="yes"/>
      <point x="1519" y="643"/>
      <point x="1610" y="503"/>
      <point x="1593" y="366" type="curve" smooth="yes"/>
      <point x="1580" y="273"/>
      <point x="1501" y="131"/>
      <point x="1013" y="131" type="curve" smooth="yes"/>
      <point x="679" y="131"/>
      <point x="249" y="221"/>
      <point x="210" y="228" type="curve" smooth="yes"/>
      <point x="201" y="230"/>
      <point x="194" y="231"/>
      <point x="187" y="231" type="curve" smooth="yes"/>
      <point x="161" y="231"/>
      <point x="147" y="218"/>
      <point x="143" y="187" type="curve" smooth="yes"/>
      <point x="139" y="132" type="line" smooth="yes"/>
      <point x="138" y="127"/>
      <point x="138" y="123"/>
      <point x="138" y="119" type="curve" smooth="yes"/>
      <point x="138" y="89"/>
      <point x="154" y="72"/>
      <point x="191" y="62" type="curve" smooth="yes"/>
      <point x="303" y="29"/>
      <point x="807" y="-40"/>
    </contour>
  </outline>
</glyph>
<glyph name="four" format="1">
  <advance width="1658"/>
  <unicode hex="0034"/>
  <outline>
    <contour>
      <point x="1067" y="4" type="curve" smooth="yes"/>
      <point x="1150" y="4" type="line" smooth="yes"/>
      <point x="1193" y="4"/>
      <point x="1217" y="28"/>
      <point x="1217" y="71" type="curve" smooth="yes"/>
      <point x="1217" y="287" type="line"/>
      <point x="1473" y="287" type="line" smooth="yes"/>
      <point x="1516" y="287"/>
      <point x="1539" y="311"/>
      <point x="1539" y="354" type="curve" smooth="yes"/>
      <point x="1539" y="384" type="line" smooth="yes"/>
      <point x="1539" y="427"/>
      <point x="1516" y="451"/>
      <point x="1473" y="451" type="curve" smooth="yes"/>
      <point x="1217" y="451" type="line"/>
      <point x="1217" y="1371" type="line" smooth="yes"/>
      <point x="1217" y="1414"/>
      <point x="1193" y="1438"/>
      <point x="1150" y="1438" type="curve" smooth="yes"/>
      <point x="1067" y="1438" type="line" smooth="yes"/>
      <point x="1024" y="1438"/>
      <point x="1000" y="1414"/>
      <point x="1000" y="1371" type="curve" smooth="yes"/>
      <point x="1000" y="451" type="line"/>
      <point x="418" y="451" type="line" smooth="yes"/>
      <point x="401" y="451"/>
      <point x="390" y="461"/>
      <point x="390" y="474" type="curve" smooth="yes"/>
      <point x="390" y="478"/>
      <point x="390" y="481"/>
      <point x="391" y="484" type="curve" smooth="yes"/>
      <point x="663" y="1371" type="line" smooth="yes"/>
      <point x="665" y="1377"/>
      <point x="666" y="1382"/>
      <point x="666" y="1387" type="curve" smooth="yes"/>
      <point x="666" y="1419"/>
      <point x="633" y="1438"/>
      <point x="596" y="1438" type="curve" smooth="yes"/>
      <point x="513" y="1438" type="line" smooth="yes"/>
      <point x="470" y="1438"/>
      <point x="459" y="1412"/>
      <point x="446" y="1371" type="curve"/>
      <point x="124" y="354" type="line" smooth="yes"/>
      <point x="122" y="348"/>
      <point x="121" y="343"/>
      <point x="121" y="338" type="curve" smooth="yes"/>
      <point x="121" y="306"/>
      <point x="154" y="287"/>
      <point x="191" y="287" type="curve" smooth="yes"/>
      <point x="1000" y="287" type="line"/>
      <point x="1000" y="71" type="line" smooth="yes"/>
      <point x="1000" y="28"/>
      <point x="1024" y="4"/>
    </contour>
  </outline>
</glyph>
<glyph name="five" format="1">
  <advance width="2091"/>
  <unicode hex="0035"/>
  <outline>
    <contour>
      <point x="940" y="-40" type="curve" smooth="yes"/>
      <point x="943" y="-40" type="line" smooth="yes"/>
      <point x="1548" y="-40"/>
      <point x="1958" y="56"/>
      <point x="1958" y="447" type="curve" smooth="yes"/>
      <point x="1958" y="728"/>
      <point x="1786" y="934"/>
      <point x="1131" y="934" type="curve" smooth="yes"/>
      <point x="681" y="934"/>
      <point x="512" y="854"/>
      <point x="378" y="767" type="curve"/>
      <point x="360" y="1223" type="line" smooth="yes"/>
      <point x="357" y="1267"/>
      <point x="385" y="1295"/>
      <point x="427" y="1295" type="curve" smooth="yes"/>
      <point x="1765" y="1273" type="line" smooth="yes"/>
      <point x="1791" y="1273"/>
      <point x="1805" y="1286"/>
      <point x="1809" y="1317" type="curve" smooth="yes"/>
      <point x="1817" y="1367" type="line" smooth="yes"/>
      <point x="1818" y="1372"/>
      <point x="1818" y="1376"/>
      <point x="1818" y="1380" type="curve" smooth="yes"/>
      <point x="1818" y="1410"/>
      <point x="1803" y="1438"/>
      <point x="1765" y="1438" type="curve" smooth="yes"/>
      <point x="234" y="1438" type="line" smooth="yes"/>
      <point x="165" y="1438"/>
      <point x="144" y="1393"/>
      <point x="144" y="1318" type="curve"/>
      <point x="208" y="680" type="line" smooth="yes"/>
      <point x="212" y="639"/>
      <point x="204" y="598"/>
      <point x="271" y="598" type="curve" smooth="yes"/>
      <point x="314" y="598" type="line" smooth="yes"/>
      <point x="466" y="598"/>
      <point x="536" y="761"/>
      <point x="1008" y="761" type="curve" smooth="yes"/>
      <point x="1562" y="761"/>
      <point x="1741" y="658"/>
      <point x="1741" y="452" type="curve" smooth="yes"/>
      <point x="1741" y="225"/>
      <point x="1580" y="133"/>
      <point x="951" y="133" type="curve" smooth="yes"/>
      <point x="617" y="133"/>
      <point x="285" y="224"/>
      <point x="246" y="231" type="curve" smooth="yes"/>
      <point x="237" y="233"/>
      <point x="230" y="234"/>
      <point x="223" y="234" type="curve" smooth="yes"/>
      <point x="197" y="234"/>
      <point x="183" y="221"/>
      <point x="179" y="190" type="curve" smooth="yes"/>
      <point x="170" y="127"/>
      <point x="171" y="128"/>
      <point x="171" y="124" type="curve" smooth="yes"/>
      <point x="171" y="94"/>
      <point x="187" y="77"/>
      <point x="224" y="67" type="curve" smooth="yes"/>
      <point x="336" y="34"/>
      <point x="699" y="-39"/>
    </contour>
  </outline>
</glyph>
<glyph name="six" format="1">
  <advance width="1860"/>
  <unicode hex="0036"/>
  <outline>
    <contour>
      <point x="912" y="-42" type="curve" smooth="yes"/>
      <point x="1370" y="-42"/>
      <point x="1728" y="61"/>
      <point x="1728" y="425" type="curve" smooth="yes"/>
      <point x="1728" y="682"/>
      <point x="1568" y="895"/>
      <point x="960" y="895" type="curve" smooth="yes"/>
      <point x="797" y="895"/>
      <point x="600" y="880"/>
      <point x="364" y="846" type="curve"/>
      <point x="364" y="910" type="line"/>
      <point x="364" y="1153"/>
      <point x="527" y="1299"/>
      <point x="960" y="1299" type="curve" smooth="yes"/>
      <point x="1130" y="1299"/>
      <point x="1402" y="1250"/>
      <point x="1489" y="1210" type="curve" smooth="yes"/>
      <point x="1494" y="1208"/>
      <point x="1499" y="1207"/>
      <point x="1505" y="1207" type="curve" smooth="yes"/>
      <point x="1519" y="1207"/>
      <point x="1534" y="1215"/>
      <point x="1540" y="1233" type="curve" smooth="yes"/>
      <point x="1571" y="1325" type="line" smooth="yes"/>
      <point x="1573" y="1330"/>
      <point x="1573" y="1335"/>
      <point x="1573" y="1340" type="curve" smooth="yes"/>
      <point x="1573" y="1358"/>
      <point x="1562" y="1370"/>
      <point x="1545" y="1377" type="curve" smooth="yes"/>
      <point x="1425" y="1426"/>
      <point x="1163" y="1472"/>
      <point x="983" y="1472" type="curve" smooth="yes"/>
      <point x="420" y="1472"/>
      <point x="140" y="1297"/>
      <point x="140" y="738" type="curve" smooth="yes"/>
      <point x="140" y="295"/>
      <point x="259" y="-42"/>
    </contour>
    <contour>
      <point x="912" y="131" type="curve" smooth="yes"/>
      <point x="520" y="131"/>
      <point x="355" y="287"/>
      <point x="355" y="556" type="curve" smooth="yes"/>
      <point x="355" y="687" type="line"/>
      <point x="603" y="722"/>
      <point x="800" y="737"/>
      <point x="954" y="737" type="curve" smooth="yes"/>
      <point x="1409" y="737"/>
      <point x="1512" y="606"/>
      <point x="1512" y="433" type="curve" smooth="yes"/>
      <point x="1512" y="187"/>
      <point x="1307" y="131"/>
    </contour>
  </outline>
</glyph>
<glyph name="seven" format="1">
  <advance width="1055"/>
  <unicode hex="0037"/>
  <outline>
    <contour>
      <point x="391" y="0" type="curve" smooth="yes"/>
      <point x="473" y="0" type="line" smooth="yes"/>
      <point x="516" y="0"/>
      <point x="526" y="26"/>
      <point x="539" y="67" type="curve"/>
      <point x="949" y="1371" type="line"/>
      <point x="949" y="1414"/>
      <point x="925" y="1438"/>
      <point x="882" y="1438" type="curve" smooth="yes"/>
      <point x="153" y="1438" type="line" smooth="yes"/>
      <point x="110" y="1438"/>
      <point x="86" y="1414"/>
      <point x="86" y="1371" type="curve" smooth="yes"/>
      <point x="86" y="1341" type="line" smooth="yes"/>
      <point x="86" y="1298"/>
      <point x="110" y="1274"/>
      <point x="153" y="1274" type="curve" smooth="yes"/>
      <point x="657" y="1274" type="line" smooth="yes"/>
      <point x="677" y="1274"/>
      <point x="690" y="1260"/>
      <point x="684" y="1241" type="curve"/>
      <point x="324" y="67" type="line"/>
      <point x="311" y="26"/>
      <point x="348" y="0"/>
    </contour>
  </outline>
</glyph>
<glyph name="eight" format="1">
  <advance width="1930"/>
  <unicode hex="0038"/>
  <outline>
    <contour>
      <point x="966" y="-41" type="curve" smooth="yes"/>
      <point x="1427" y="-41"/>
      <point x="1795" y="14"/>
      <point x="1795" y="386" type="curve" smooth="yes"/>
      <point x="1795" y="543"/>
      <point x="1657" y="661"/>
      <point x="1492" y="696" type="curve"/>
      <point x="1599" y="734"/>
      <point x="1695" y="877"/>
      <point x="1695" y="1028" type="curve" smooth="yes"/>
      <point x="1695" y="1370"/>
      <point x="1429" y="1473"/>
      <point x="966" y="1473" type="curve" smooth="yes"/>
      <point x="507" y="1473"/>
      <point x="217" y="1356"/>
      <point x="217" y="1058" type="curve" smooth="yes"/>
      <point x="217" y="908"/>
      <point x="318" y="793"/>
      <point x="392" y="751" type="curve"/>
      <point x="271" y="693"/>
      <point x="137" y="559"/>
      <point x="137" y="402" type="curve" smooth="yes"/>
      <point x="137" y="10"/>
      <point x="508" y="-41"/>
    </contour>
    <contour>
      <point x="966" y="133" type="curve" smooth="yes"/>
      <point x="575" y="133"/>
      <point x="348" y="168"/>
      <point x="348" y="401" type="curve" smooth="yes"/>
      <point x="348" y="496"/>
      <point x="411" y="613"/>
      <point x="546" y="687" type="curve"/>
      <point x="779" y="658"/>
      <point x="1009" y="622"/>
      <point x="1152" y="604" type="curve" smooth="yes"/>
      <point x="1467" y="565"/>
      <point x="1582" y="521"/>
      <point x="1582" y="397" type="curve" smooth="yes"/>
      <point x="1582" y="174"/>
      <point x="1421" y="133"/>
    </contour>
    <contour>
      <point x="1332" y="758" type="curve"/>
      <point x="1081" y="778"/>
      <point x="772" y="818"/>
      <point x="774" y="818" type="curve" smooth="yes"/>
      <point x="481" y="842"/>
      <point x="428" y="966"/>
      <point x="428" y="1058" type="curve" smooth="yes"/>
      <point x="428" y="1242"/>
      <point x="593" y="1298"/>
      <point x="966" y="1298" type="curve" smooth="yes"/>
      <point x="1349" y="1298"/>
      <point x="1503" y="1229"/>
      <point x="1503" y="1024" type="curve" smooth="yes"/>
      <point x="1503" y="884"/>
      <point x="1395" y="810"/>
    </contour>
  </outline>
</glyph>
<glyph name="semicolon" format="1">
  <advance width="624"/>
  <unicode hex="003B"/>
  <outline>
    <contour>
      <point x="212" y="-300" type="curve" smooth="yes"/>
      <point x="350" y="-277"/>
      <point x="479" y="-140"/>
      <point x="479" y="97" type="curve" smooth="yes"/>
      <point x="479" y="239" type="line" smooth="yes"/>
      <point x="479" y="282"/>
      <point x="445" y="316"/>
      <point x="402" y="316" type="curve" smooth="yes"/>
      <point x="206" y="316" type="line" smooth="yes"/>
      <point x="163" y="316"/>
      <point x="146" y="296"/>
      <point x="146" y="253" type="curve" smooth="yes"/>
      <point x="146" y="50" type="line" smooth="yes"/>
      <point x="146" y="12"/>
      <point x="168" y="0"/>
      <point x="206" y="0" type="curve" smooth="yes"/>
      <point x="291" y="0" type="line" smooth="yes"/>
      <point x="306" y="0"/>
      <point x="308" y="-11"/>
      <point x="308" y="-27" type="curve" smooth="yes"/>
      <point x="308" y="-51"/>
      <point x="276" y="-128"/>
      <point x="207" y="-171" type="curve" smooth="yes"/>
      <point x="164" y="-198"/>
      <point x="146" y="-192"/>
      <point x="146" y="-246" type="curve" smooth="yes"/>
      <point x="146" y="-255" type="line" smooth="yes"/>
      <point x="146" y="-291"/>
      <point x="177" y="-306"/>
    </contour>
    <contour>
      <point x="246" y="756" type="curve" smooth="yes"/>
      <point x="381" y="756" type="line" smooth="yes"/>
      <point x="424" y="756"/>
      <point x="458" y="790"/>
      <point x="458" y="833" type="curve" smooth="yes"/>
      <point x="458" y="976" type="line" smooth="yes"/>
      <point x="458" y="1019"/>
      <point x="424" y="1053"/>
      <point x="381" y="1053" type="curve" smooth="yes"/>
      <point x="246" y="1053" type="line" smooth="yes"/>
      <point x="203" y="1053"/>
      <point x="169" y="1019"/>
      <point x="169" y="976" type="curve" smooth="yes"/>
      <point x="169" y="833" type="line" smooth="yes"/>
      <point x="169" y="790"/>
      <point x="203" y="756"/>
    </contour>
  </outline>
</glyph>
<glyph name="less" format="1">
  <advance width="1209"/>
  <unicode hex="003C"/>
  <outline>
    <contour>
      <point x="1042" y="-21" type="curve" smooth="yes"/>
      <point x="1057" y="-21"/>
      <point x="1065" y="-8"/>
      <point x="1065" y="17" type="curve" smooth="yes"/>
      <point x="1065" y="93" type="line" smooth="yes"/>
      <point x="1065" y="136"/>
      <point x="1044" y="164"/>
      <point x="998" y="187" type="curve" smooth="yes"/>
      <point x="289" y="535" type="line" smooth="yes"/>
      <point x="283" y="538"/>
      <point x="280" y="543"/>
      <point x="280" y="547" type="curve" smooth="yes"/>
      <point x="280" y="551"/>
      <point x="283" y="556"/>
      <point x="289" y="559" type="curve" smooth="yes"/>
      <point x="998" y="947" type="line" smooth="yes"/>
      <point x="1041" y="971"/>
      <point x="1065" y="988"/>
      <point x="1065" y="1031" type="curve" smooth="yes"/>
      <point x="1065" y="1106" type="line" smooth="yes"/>
      <point x="1065" y="1134"/>
      <point x="1055" y="1148"/>
      <point x="1036" y="1148" type="curve" smooth="yes"/>
      <point x="1026" y="1148"/>
      <point x="1013" y="1144"/>
      <point x="998" y="1136" type="curve" smooth="yes"/>
      <point x="187" y="700" type="line" smooth="yes"/>
      <point x="148" y="677"/>
      <point x="122" y="643"/>
      <point x="122" y="604" type="curve" smooth="yes"/>
      <point x="122" y="502" type="line" smooth="yes"/>
      <point x="122" y="462"/>
      <point x="143" y="416"/>
      <point x="188" y="396" type="curve" smooth="yes"/>
      <point x="998" y="-3" type="line" smooth="yes"/>
      <point x="1018" y="-12"/>
      <point x="1030" y="-21"/>
    </contour>
  </outline>
</glyph>
<glyph name="question" format="1">
  <advance width="1742"/>
  <unicode hex="003F"/>
  <outline>
    <contour>
      <point x="692" y="447" type="curve"/>
      <point x="715" y="427"/>
      <point x="729" y="446"/>
      <point x="720" y="446" type="curve" smooth="yes"/>
      <point x="716" y="461"/>
      <point x="781" y="633"/>
      <point x="954" y="636" type="curve" smooth="yes"/>
      <point x="1155" y="644"/>
      <point x="1632" y="646"/>
      <point x="1657" y="1009" type="curve" smooth="yes"/>
      <point x="1670" y="1377"/>
      <point x="1344" y="1479"/>
      <point x="843" y="1481" type="curve" smooth="yes"/>
      <point x="571" y="1482"/>
      <point x="272" y="1413"/>
      <point x="151" y="1372" type="curve"/>
      <point x="110" y="1357"/>
      <point x="84" y="1332"/>
      <point x="99" y="1298" type="curve"/>
      <point x="98" y="1300"/>
      <point x="122" y="1243"/>
      <point x="120" y="1243" type="curve" smooth="yes"/>
      <point x="126" y="1200"/>
      <point x="138" y="1185"/>
      <point x="173" y="1200" type="curve" smooth="yes"/>
      <point x="365" y="1265"/>
      <point x="562" y="1316"/>
      <point x="857" y="1321" type="curve" smooth="yes"/>
      <point x="1268" y="1328"/>
      <point x="1438" y="1229"/>
      <point x="1449" y="1059" type="curve" smooth="yes"/>
      <point x="1461" y="901"/>
      <point x="1394" y="828"/>
      <point x="1061" y="806" type="curve" smooth="yes"/>
      <point x="847" y="789"/>
      <point x="731" y="723"/>
      <point x="623" y="528" type="curve"/>
      <point x="622" y="529"/>
      <point x="606" y="509"/>
      <point x="627" y="493" type="curve"/>
      <point x="643" y="482"/>
      <point x="672" y="462"/>
    </contour>
    <contour>
      <point x="624" y="0" type="curve" smooth="yes"/>
      <point x="792" y="0" type="line" smooth="yes"/>
      <point x="835" y="0"/>
      <point x="849" y="14"/>
      <point x="849" y="57" type="curve" smooth="yes"/>
      <point x="849" y="182" type="line" smooth="yes"/>
      <point x="849" y="225"/>
      <point x="835" y="238"/>
      <point x="792" y="238" type="curve" smooth="yes"/>
      <point x="624" y="238" type="line" smooth="yes"/>
      <point x="581" y="238"/>
      <point x="567" y="225"/>
      <point x="567" y="182" type="curve" smooth="yes"/>
      <point x="567" y="57" type="line" smooth="yes"/>
      <point x="567" y="14"/>
      <point x="581" y="0"/>
    </contour>
  </outline>
</glyph>
<glyph name="at" format="1">
  <advance width="2242"/>
  <unicode hex="0040"/>
  <outline>
    <contour>
      <point x="1067" y="-285" type="curve" smooth="yes"/>
      <point x="1211" y="-285"/>
      <point x="1338" y="-263"/>
      <point x="1448" y="-223" type="curve"/>
      <point x="1397" y="-53" type="line"/>
      <point x="1312" y="-87"/>
      <point x="1212" y="-106"/>
      <point x="1095" y="-106" type="curve" smooth="yes"/>
      <point x="588" y="-106"/>
      <point x="375" y="241"/>
      <point x="375" y="590" type="curve" smooth="yes"/>
      <point x="375" y="971"/>
      <point x="640" y="1285"/>
      <point x="1147" y="1285" type="curve" smooth="yes"/>
      <point x="1648" y="1285"/>
      <point x="1906" y="975"/>
      <point x="1906" y="601" type="curve" smooth="yes"/>
      <point x="1906" y="306"/>
      <point x="1849" y="277"/>
      <point x="1796" y="277" type="curve" smooth="yes"/>
      <point x="1747" y="277"/>
      <point x="1701" y="310"/>
      <point x="1701" y="403" type="curve" smooth="yes"/>
      <point x="1701" y="925" type="line" smooth="yes"/>
      <point x="1701" y="959"/>
      <point x="1672" y="986"/>
      <point x="1635" y="986" type="curve" smooth="yes"/>
      <point x="1619" y="986" type="line" smooth="yes"/>
      <point x="1579" y="986"/>
      <point x="1549" y="974"/>
      <point x="1542" y="936" type="curve"/>
      <point x="1523" y="811" type="line" smooth="yes"/>
      <point x="1521" y="803"/>
      <point x="1520" y="798"/>
      <point x="1517" y="798" type="curve" smooth="yes"/>
      <point x="1514" y="798"/>
      <point x="1511" y="802"/>
      <point x="1507" y="810" type="curve" smooth="yes"/>
      <point x="1448" y="927"/>
      <point x="1292" y="1031"/>
      <point x="1084" y="1031" type="curve" smooth="yes"/>
      <point x="800" y="1031"/>
      <point x="575" y="865"/>
      <point x="575" y="573" type="curve" smooth="yes"/>
      <point x="575" y="264"/>
      <point x="827" y="101"/>
      <point x="1111" y="101" type="curve" smooth="yes"/>
      <point x="1329" y="101"/>
      <point x="1449" y="208"/>
      <point x="1519" y="315" type="curve" smooth="yes"/>
      <point x="1525" y="324"/>
      <point x="1532" y="339"/>
      <point x="1540" y="339" type="curve" smooth="yes"/>
      <point x="1547" y="339"/>
      <point x="1554" y="322"/>
      <point x="1557" y="301" type="curve"/>
      <point x="1563" y="205"/>
      <point x="1673" y="127"/>
      <point x="1793" y="127" type="curve" smooth="yes"/>
      <point x="1943" y="127"/>
      <point x="2108" y="247"/>
      <point x="2108" y="601" type="curve"/>
      <point x="2106" y="1061"/>
      <point x="1762" y="1475"/>
      <point x="1143" y="1475" type="curve" smooth="yes"/>
      <point x="523" y="1475"/>
      <point x="136" y="1089"/>
      <point x="136" y="595" type="curve" smooth="yes"/>
      <point x="136" y="131"/>
      <point x="447" y="-285"/>
    </contour>
    <contour>
      <point x="1119" y="283" type="curve" smooth="yes"/>
      <point x="915" y="283"/>
      <point x="823" y="412"/>
      <point x="823" y="559" type="curve" smooth="yes"/>
      <point x="823" y="701"/>
      <point x="898" y="840"/>
      <point x="1118" y="840" type="curve" smooth="yes"/>
      <point x="1284" y="840"/>
      <point x="1462" y="765"/>
      <point x="1462" y="564" type="curve" smooth="yes"/>
      <point x="1462" y="348"/>
      <point x="1287" y="283"/>
    </contour>
  </outline>
</glyph>
<glyph name="C" format="1">
  <advance width="2185"/>
  <unicode hex="0043"/>
  <outline>
    <contour>
      <point x="1093" y="1438" type="move" name="top"/>
    </contour>
    <contour>
      <point x="1093" y="0" type="move" name="bottom"/>
    </contour>
    <contour>
      <point x="1125" y="-41" type="curve" smooth="yes"/>
      <point x="1487" y="-41"/>
      <point x="1870" y="48"/>
      <point x="2044" y="391" type="curve" smooth="yes"/>
      <point x="2046" y="395"/>
      <point x="2047" y="399"/>
      <point x="2047" y="405" type="curve" smooth="yes"/>
      <point x="2047" y="416"/>
      <point x="2042" y="428"/>
      <point x="2029" y="429" type="curve" smooth="yes"/>
      <point x="1860" y="456"/>
      <point x="1869" y="455"/>
      <point x="1866" y="455" type="curve" smooth="yes"/>
      <point x="1835" y="455"/>
      <point x="1827" y="430"/>
      <point x="1819" y="418" type="curve"/>
      <point x="1677" y="183"/>
      <point x="1418" y="121"/>
      <point x="1125" y="121" type="curve"/>
      <point x="735" y="121"/>
      <point x="347" y="226"/>
      <point x="347" y="721" type="curve" smooth="yes"/>
      <point x="347" y="1143"/>
      <point x="722" y="1313"/>
      <point x="1125" y="1313" type="curve"/>
      <point x="1426" y="1313"/>
      <point x="1672" y="1214"/>
      <point x="1819" y="996" type="curve" smooth="yes"/>
      <point x="1829" y="980"/>
      <point x="1849" y="974"/>
      <point x="1863" y="974" type="curve" smooth="yes"/>
      <point x="1864" y="974"/>
      <point x="1853" y="973"/>
      <point x="2028" y="998" type="curve" smooth="yes"/>
      <point x="2043" y="1001"/>
      <point x="2047" y="1009"/>
      <point x="2047" y="1016" type="curve" smooth="yes"/>
      <point x="2047" y="1023"/>
      <point x="2044" y="1030"/>
      <point x="2042" y="1035" type="curve" smooth="yes"/>
      <point x="1866" y="1362"/>
      <point x="1487" y="1475"/>
      <point x="1125" y="1475" type="curve" smooth="yes"/>
      <point x="671" y="1475"/>
      <point x="133" y="1292"/>
      <point x="133" y="721" type="curve" smooth="yes"/>
      <point x="133" y="102"/>
      <point x="671" y="-41"/>
    </contour>
  </outline>
</glyph>
<glyph name="G" format="1">
  <advance width="2282"/>
  <unicode hex="0047"/>
  <outline>
    <contour>
      <point x="1141" y="1438" type="move" name="top"/>
    </contour>
    <contour>
      <point x="1141" y="0" type="move" name="bottom"/>
    </contour>
    <contour>
      <point x="1130" y="-41" type="curve" smooth="yes"/>
      <point x="1415" y="-41"/>
      <point x="1744" y="32"/>
      <point x="1937" y="265" type="curve" smooth="yes"/>
      <point x="1945" y="271"/>
      <point x="1948" y="275"/>
      <point x="1951" y="275" type="curve" smooth="yes"/>
      <point x="1957" y="275"/>
      <point x="1959" y="258"/>
      <point x="1960" y="251" type="curve" smooth="yes"/>
      <point x="1969" y="197"/>
      <point x="1977" y="101"/>
      <point x="1987" y="70" type="curve" smooth="yes"/>
      <point x="1999" y="27"/>
      <point x="2022" y="0"/>
      <point x="2068" y="0" type="curve" smooth="yes"/>
      <point x="2111" y="0"/>
      <point x="2134" y="34"/>
      <point x="2134" y="77" type="curve" smooth="yes"/>
      <point x="2134" y="683" type="line" smooth="yes"/>
      <point x="2134" y="726"/>
      <point x="2100" y="760"/>
      <point x="2057" y="760" type="curve" smooth="yes"/>
      <point x="1304" y="760" type="line" smooth="yes"/>
      <point x="1261" y="760"/>
      <point x="1227" y="734"/>
      <point x="1227" y="691" type="curve" smooth="yes"/>
      <point x="1227" y="675" type="line" smooth="yes"/>
      <point x="1227" y="632"/>
      <point x="1261" y="606"/>
      <point x="1304" y="606" type="curve" smooth="yes"/>
      <point x="1903" y="606" type="line" smooth="yes"/>
      <point x="1919" y="606"/>
      <point x="1925" y="580"/>
      <point x="1925" y="564" type="curve" smooth="yes"/>
      <point x="1925" y="310"/>
      <point x="1535" y="121"/>
      <point x="1128" y="121" type="curve" smooth="yes"/>
      <point x="737" y="121"/>
      <point x="347" y="225"/>
      <point x="347" y="721" type="curve" smooth="yes"/>
      <point x="347" y="1143"/>
      <point x="724" y="1313"/>
      <point x="1128" y="1312" type="curve"/>
      <point x="1428" y="1312"/>
      <point x="1696" y="1219"/>
      <point x="1826" y="1030" type="curve"/>
      <point x="1830" y="1022"/>
      <point x="1859" y="974"/>
      <point x="1916" y="974" type="curve" smooth="yes"/>
      <point x="1922" y="974"/>
      <point x="2074" y="1000"/>
      <point x="2061" y="999" type="curve" smooth="yes"/>
      <point x="2073" y="1001"/>
      <point x="2079" y="1010"/>
      <point x="2079" y="1019" type="curve" smooth="yes"/>
      <point x="2079" y="1024"/>
      <point x="2078" y="1028"/>
      <point x="2075" y="1034" type="curve" smooth="yes"/>
      <point x="1900" y="1362"/>
      <point x="1489" y="1475"/>
      <point x="1128" y="1475" type="curve" smooth="yes"/>
      <point x="673" y="1475"/>
      <point x="133" y="1292"/>
      <point x="133" y="721" type="curve" smooth="yes"/>
      <point x="133" y="101"/>
      <point x="675" y="-41"/>
    </contour>
  </outline>
</glyph>
<glyph name="J" format="1">
  <advance width="1180"/>
  <unicode hex="004A"/>
  <outline>
    <contour>
      <point x="111" y="-231" type="curve" smooth="yes"/>
      <point x="571" y="-231"/>
      <point x="1024" y="-159"/>
      <point x="1024" y="460" type="curve" smooth="yes"/>
      <point x="1024" y="1370" type="line" smooth="yes"/>
      <point x="1024" y="1414"/>
      <point x="1000" y="1438"/>
      <point x="957" y="1438" type="curve" smooth="yes"/>
      <point x="880" y="1438" type="line" smooth="yes"/>
      <point x="836" y="1438"/>
      <point x="812" y="1414"/>
      <point x="812" y="1370" type="curve" smooth="yes"/>
      <point x="812" y="460" type="line" smooth="yes"/>
      <point x="812" y="-36"/>
      <point x="506" y="-60"/>
      <point x="111" y="-60" type="curve" smooth="yes"/>
      <point x="98" y="-60"/>
      <point x="80" y="-74"/>
      <point x="80" y="-115" type="curve" smooth="yes"/>
      <point x="80" y="-177" type="line" smooth="yes"/>
      <point x="80" y="-213"/>
      <point x="96" y="-231"/>
    </contour>
    <contour>
      <point x="590" y="1438" type="move" name="top"/>
    </contour>
  </outline>
</glyph>
<glyph name="K" format="1">
  <advance width="1604"/>
  <unicode hex="004B"/>
  <outline>
    <contour>
      <point x="803" y="1438" type="move" name="top"/>
    </contour>
    <contour>
      <point x="803" y="0" type="move" name="bottom"/>
    </contour>
    <contour>
      <point x="227" y="0" type="curve" smooth="yes"/>
      <point x="308" y="0" type="line" smooth="yes"/>
      <point x="351" y="0"/>
      <point x="375" y="24"/>
      <point x="375" y="67" type="curve" smooth="yes"/>
      <point x="375" y="737" type="line"/>
      <point x="1164" y="67" type="line" smooth="yes"/>
      <point x="1203" y="32"/>
      <point x="1233" y="0"/>
      <point x="1276" y="0" type="curve" smooth="yes"/>
      <point x="1431" y="0" type="line" smooth="yes"/>
      <point x="1474" y="0"/>
      <point x="1491" y="32"/>
      <point x="1452" y="67" type="curve" smooth="yes"/>
      <point x="649" y="735" type="line" smooth="yes"/>
      <point x="643" y="739"/>
      <point x="641" y="743"/>
      <point x="642" y="746" type="curve"/>
      <point x="641" y="751"/>
      <point x="645" y="755"/>
      <point x="648" y="756" type="curve" smooth="yes"/>
      <point x="1381" y="1365" type="line" smooth="yes"/>
      <point x="1419" y="1399"/>
      <point x="1399" y="1438"/>
      <point x="1356" y="1438" type="curve" smooth="yes"/>
      <point x="1209" y="1438" type="line" smooth="yes"/>
      <point x="1166" y="1438"/>
      <point x="1138" y="1410"/>
      <point x="1101" y="1376" type="curve" smooth="yes"/>
      <point x="375" y="760" type="line"/>
      <point x="375" y="1371" type="line" smooth="yes"/>
      <point x="375" y="1414"/>
      <point x="351" y="1438"/>
      <point x="308" y="1438" type="curve" smooth="yes"/>
      <point x="227" y="1438" type="line" smooth="yes"/>
      <point x="184" y="1438"/>
      <point x="160" y="1414"/>
      <point x="160" y="1371" type="curve" smooth="yes"/>
      <point x="160" y="67" type="line" smooth="yes"/>
      <point x="160" y="24"/>
      <point x="184" y="0"/>
    </contour>
  </outline>
</glyph>
<glyph name="N" format="1">
  <advance width="2033"/>
  <unicode hex="004E"/>
  <outline>
    <contour>
      <point x="1017" y="1438" type="move" name="top"/>
    </contour>
    <contour>
      <point x="1017" y="0" type="move" name="bottom"/>
    </contour>
    <contour>
      <point x="227" y="0" type="curve" smooth="yes"/>
      <point x="310" y="0" type="line" smooth="yes"/>
      <point x="353" y="0"/>
      <point x="377" y="24"/>
      <point x="377" y="67" type="curve" smooth="yes"/>
      <point x="377" y="1121" type="line" smooth="yes"/>
      <point x="377" y="1121"/>
      <point x="391" y="1130"/>
      <point x="391" y="1130" type="curve" smooth="yes"/>
      <point x="1676" y="19" type="line"/>
      <point x="1687" y="6"/>
      <point x="1704" y="0"/>
      <point x="1725" y="0" type="curve" smooth="yes"/>
      <point x="1807" y="0" type="line" smooth="yes"/>
      <point x="1850" y="0"/>
      <point x="1873" y="24"/>
      <point x="1873" y="67" type="curve" smooth="yes"/>
      <point x="1873" y="1371" type="line" smooth="yes"/>
      <point x="1873" y="1414"/>
      <point x="1850" y="1438"/>
      <point x="1807" y="1438" type="curve" smooth="yes"/>
      <point x="1723" y="1438" type="line" smooth="yes"/>
      <point x="1680" y="1438"/>
      <point x="1656" y="1414"/>
      <point x="1656" y="1371" type="curve" smooth="yes"/>
      <point x="1656" y="307" type="line" smooth="yes"/>
      <point x="1656" y="307"/>
      <point x="1643" y="294"/>
      <point x="1643" y="294" type="curve" smooth="yes"/>
      <point x="351" y="1420" type="line"/>
      <point x="341" y="1432"/>
      <point x="324" y="1438"/>
      <point x="303" y="1438" type="curve" smooth="yes"/>
      <point x="227" y="1438" type="line" smooth="yes"/>
      <point x="184" y="1438"/>
      <point x="160" y="1414"/>
      <point x="160" y="1371" type="curve" smooth="yes"/>
      <point x="160" y="67" type="line" smooth="yes"/>
      <point x="160" y="24"/>
      <point x="184" y="0"/>
    </contour>
  </outline>
</glyph>
<glyph name="Q" format="1">
  <advance width="2174"/>
  <unicode hex="0051"/>
  <outline>
    <contour>
      <point x="1642" y="-513" type="curve"/>
      <point x="1679" y="-493" type="line"/>
      <point x="1716" y="-473"/>
      <point x="1740" y="-440"/>
      <point x="1717" y="-402" type="curve"/>
      <point x="1426" y="122" type="line"/>
      <point x="1234" y="66" type="line"/>
      <point x="1545" y="-495" type="line"/>
      <point x="1567" y="-532"/>
      <point x="1603" y="-533"/>
    </contour>
    <contour>
      <point x="1087" y="121" type="curve" smooth="yes"/>
      <point x="696" y="121"/>
      <point x="347" y="229"/>
      <point x="347" y="724" type="curve" smooth="yes"/>
      <point x="347" y="1145"/>
      <point x="683" y="1313"/>
      <point x="1087" y="1313" type="curve" smooth="yes"/>
      <point x="1494" y="1313"/>
      <point x="1827" y="1145"/>
      <point x="1827" y="724" type="curve" smooth="yes"/>
      <point x="1827" y="229"/>
      <point x="1481" y="121"/>
    </contour>
    <contour>
      <point x="1087" y="-41" type="curve" smooth="yes"/>
      <point x="1546" y="-41"/>
      <point x="2040" y="106"/>
      <point x="2040" y="724" type="curve" smooth="yes"/>
      <point x="2040" y="1295"/>
      <point x="1546" y="1475"/>
      <point x="1087" y="1475" type="curve" smooth="yes"/>
      <point x="631" y="1475"/>
      <point x="134" y="1295"/>
      <point x="134" y="724" type="curve" smooth="yes"/>
      <point x="134" y="106"/>
      <point x="631" y="-41"/>
    </contour>
  </outline>
</glyph>
<glyph name="R" format="1">
  <advance width="2129"/>
  <unicode hex="0052"/>
  <outline>
    <contour>
      <point x="1065" y="1438" type="move" name="top"/>
    </contour>
    <contour>
      <point x="1065" y="0" type="move" name="bottom"/>
    </contour>
    <contour>
      <point x="227" y="0" type="curve" smooth="yes"/>
      <point x="308" y="0" type="line" smooth="yes"/>
      <point x="351" y="0"/>
      <point x="375" y="24"/>
      <point x="375" y="67" type="curve" smooth="yes"/>
      <point x="375" y="524" type="line" smooth="yes"/>
      <point x="375" y="523"/>
      <point x="391" y="539"/>
      <point x="391" y="539" type="curve" smooth="yes"/>
      <point x="1205" y="539" type="line" smooth="yes"/>
      <point x="1297" y="539"/>
      <point x="1529" y="537"/>
      <point x="1625" y="331" type="curve" smooth="yes"/>
      <point x="1624" y="333"/>
      <point x="1751" y="65"/>
      <point x="1750" y="67" type="curve" smooth="yes"/>
      <point x="1772" y="28"/>
      <point x="1780" y="0"/>
      <point x="1823" y="0" type="curve" smooth="yes"/>
      <point x="1915" y="0" type="line" smooth="yes"/>
      <point x="1958" y="0"/>
      <point x="1999" y="27"/>
      <point x="1976" y="68" type="curve" smooth="yes"/>
      <point x="1976" y="67"/>
      <point x="1849" y="353"/>
      <point x="1850" y="351" type="curve" smooth="yes"/>
      <point x="1773" y="519"/>
      <point x="1653" y="558"/>
      <point x="1600" y="576" type="curve" smooth="yes"/>
      <point x="1596" y="578"/>
      <point x="1595" y="580"/>
      <point x="1595" y="581" type="curve" smooth="yes"/>
      <point x="1595" y="583"/>
      <point x="1598" y="583"/>
      <point x="1601" y="584" type="curve" smooth="yes"/>
      <point x="1815" y="631"/>
      <point x="1943" y="723"/>
      <point x="1943" y="1014" type="curve" smooth="yes"/>
      <point x="1943" y="1439"/>
      <point x="1536" y="1438"/>
      <point x="1010" y="1438" type="curve" smooth="yes"/>
      <point x="227" y="1438" type="line" smooth="yes"/>
      <point x="184" y="1438"/>
      <point x="160" y="1414"/>
      <point x="160" y="1371" type="curve" smooth="yes"/>
      <point x="160" y="67" type="line" smooth="yes"/>
      <point x="160" y="24"/>
      <point x="184" y="0"/>
    </contour>
    <contour>
      <point x="391" y="706" type="line"/>
      <point x="391" y="706"/>
      <point x="375" y="719"/>
      <point x="375" y="718" type="curve" smooth="yes"/>
      <point x="375" y="1270" type="line" smooth="yes"/>
      <point x="375" y="1270"/>
      <point x="392" y="1284"/>
      <point x="392" y="1284" type="curve" smooth="yes"/>
      <point x="1012" y="1284" type="line" smooth="yes"/>
      <point x="1469" y="1284"/>
      <point x="1733" y="1256"/>
      <point x="1733" y="1005" type="curve" smooth="yes"/>
      <point x="1733" y="693"/>
      <point x="1569" y="706"/>
      <point x="1061" y="706" type="curve" smooth="yes"/>
    </contour>
  </outline>
</glyph>
<glyph name="W" format="1">
  <advance width="3291"/>
  <unicode hex="0057"/>
  <outline>
    <contour>
      <point x="1645" y="1438" type="move" name="top"/>
    </contour>
    <contour>
      <point x="874" y="0" type="curve" smooth="yes"/>
      <point x="981" y="0" type="line" smooth="yes"/>
      <point x="1021" y="3"/>
      <point x="1055" y="26"/>
      <point x="1075" y="67" type="curve" smooth="yes"/>
      <point x="1648" y="1267" type="line"/>
      <point x="2271" y="67" type="line" smooth="yes"/>
      <point x="2293" y="25"/>
      <point x="2330" y="3"/>
      <point x="2369" y="0" type="curve" smooth="yes"/>
      <point x="2476" y="0" type="line" smooth="yes"/>
      <point x="2516" y="3"/>
      <point x="2548" y="26"/>
      <point x="2569" y="67" type="curve" smooth="yes"/>
      <point x="3182" y="1371" type="line" smooth="yes"/>
      <point x="3204" y="1414"/>
      <point x="3193" y="1438"/>
      <point x="3150" y="1438" type="curve" smooth="yes"/>
      <point x="3046" y="1438" type="line" smooth="yes"/>
      <point x="3003" y="1438"/>
      <point x="2965" y="1414"/>
      <point x="2944" y="1371" type="curve" smooth="yes"/>
      <point x="2428" y="178" type="line"/>
      <point x="1807" y="1371" type="line" smooth="yes"/>
      <point x="1783" y="1414"/>
      <point x="1744" y="1438"/>
      <point x="1701" y="1438" type="curve"/>
      <point x="1586" y="1438" type="line" smooth="yes"/>
      <point x="1548" y="1438"/>
      <point x="1510" y="1414"/>
      <point x="1489" y="1371" type="curve" smooth="yes"/>
      <point x="922" y="178" type="line"/>
      <point x="352" y="1371" type="line" smooth="yes"/>
      <point x="328" y="1414"/>
      <point x="289" y="1438"/>
      <point x="246" y="1438" type="curve" smooth="yes"/>
      <point x="134" y="1438" type="line" smooth="yes"/>
      <point x="91" y="1438"/>
      <point x="81" y="1414"/>
      <point x="106" y="1371" type="curve" smooth="yes"/>
      <point x="775" y="67" type="line" smooth="yes"/>
      <point x="799" y="26"/>
      <point x="834" y="3"/>
    </contour>
  </outline>
</glyph>
<glyph name="Y" format="1">
  <advance width="1660"/>
  <unicode hex="0059"/>
  <outline>
    <contour>
      <point x="830" y="1438" type="move" name="top"/>
    </contour>
    <contour>
      <point x="788" y="0" type="curve" smooth="yes"/>
      <point x="869" y="0" type="line" smooth="yes"/>
      <point x="912" y="0"/>
      <point x="936" y="24"/>
      <point x="936" y="67" type="curve" smooth="yes"/>
      <point x="936" y="724" type="line"/>
      <point x="1555" y="1371" type="line" smooth="yes"/>
      <point x="1576" y="1389"/>
      <point x="1583" y="1407"/>
      <point x="1583" y="1418" type="curve" smooth="yes"/>
      <point x="1583" y="1431"/>
      <point x="1572" y="1438"/>
      <point x="1549" y="1438" type="curve" smooth="yes"/>
      <point x="1414" y="1438" type="line" smooth="yes"/>
      <point x="1372" y="1438"/>
      <point x="1327" y="1414"/>
      <point x="1287" y="1371" type="curve" smooth="yes"/>
      <point x="832" y="882" type="line"/>
      <point x="370" y="1371" type="line" smooth="yes"/>
      <point x="326" y="1414"/>
      <point x="279" y="1438"/>
      <point x="236" y="1438" type="curve" smooth="yes"/>
      <point x="105" y="1438" type="line" smooth="yes"/>
      <point x="83" y="1438"/>
      <point x="72" y="1432"/>
      <point x="72" y="1421" type="curve" smooth="yes"/>
      <point x="72" y="1409"/>
      <point x="82" y="1391"/>
      <point x="105" y="1371" type="curve" smooth="yes"/>
      <point x="721" y="720" type="line"/>
      <point x="721" y="67" type="line" smooth="yes"/>
      <point x="721" y="24"/>
      <point x="745" y="0"/>
    </contour>
  </outline>
</glyph>
<glyph name="asciicircum" format="1">
  <advance width="1299"/>
  <unicode hex="005E"/>
  <outline>
    <contour>
      <point x="118" y="201" type="curve" smooth="yes"/>
      <point x="211" y="201" type="line" smooth="yes"/>
      <point x="257" y="201"/>
      <point x="280" y="229"/>
      <point x="300" y="270" type="curve" smooth="yes"/>
      <point x="610" y="950" type="line" smooth="yes"/>
      <point x="613" y="957"/>
      <point x="620" y="960"/>
      <point x="626" y="960" type="curve" smooth="yes"/>
      <point x="632" y="960"/>
      <point x="638" y="957"/>
      <point x="642" y="950" type="curve" smooth="yes"/>
      <point x="970" y="270" type="line" smooth="yes"/>
      <point x="989" y="229"/>
      <point x="1013" y="201"/>
      <point x="1059" y="201" type="curve" smooth="yes"/>
      <point x="1134" y="201" type="line" smooth="yes"/>
      <point x="1161" y="201"/>
      <point x="1180" y="223"/>
      <point x="1180" y="247" type="curve" smooth="yes"/>
      <point x="1180" y="255"/>
      <point x="1179" y="262"/>
      <point x="1175" y="269" type="curve" smooth="yes"/>
      <point x="756" y="1139" type="line" smooth="yes"/>
      <point x="734" y="1180"/>
      <point x="710" y="1207"/>
      <point x="663" y="1207" type="curve" smooth="yes"/>
      <point x="587" y="1207" type="line" smooth="yes"/>
      <point x="540" y="1207"/>
      <point x="515" y="1180"/>
      <point x="493" y="1140" type="curve" smooth="yes"/>
      <point x="78" y="268" type="line" smooth="yes"/>
      <point x="74" y="261"/>
      <point x="72" y="253"/>
      <point x="72" y="246" type="curve" smooth="yes"/>
      <point x="72" y="223"/>
      <point x="91" y="201"/>
    </contour>
  </outline>
</glyph>
<glyph name="grave" format="1">
  <advance width="1745"/>
  <unicode hex="0060"/>
  <outline>
    <contour>
      <point x="743" y="1006" type="move" name="_top"/>
    </contour>
    <contour>
      <point x="847" y="1174" type="curve" smooth="yes"/>
      <point x="874" y="1174" type="line" smooth="yes"/>
      <point x="885" y="1173"/>
      <point x="895" y="1175"/>
      <point x="888" y="1211" type="curve"/>
      <point x="834" y="1539" type="line" smooth="yes"/>
      <point x="831" y="1550"/>
      <point x="828" y="1566"/>
      <point x="820" y="1577" type="curve" smooth="yes"/>
      <point x="804" y="1592"/>
      <point x="792" y="1595"/>
      <point x="769" y="1595" type="curve" smooth="yes"/>
      <point x="770" y="1595"/>
      <point x="599" y="1596"/>
      <point x="599" y="1596" type="curve" smooth="yes"/>
      <point x="553" y="1596"/>
      <point x="551" y="1583"/>
      <point x="579" y="1542" type="curve" smooth="yes"/>
      <point x="792" y="1218" type="line" smooth="yes"/>
      <point x="801" y="1204"/>
      <point x="818" y="1174"/>
    </contour>
  </outline>
</glyph>
<glyph name="b" format="1">
  <advance width="1671"/>
  <unicode hex="0062"/>
  <outline>
    <contour>
      <point x="884" y="-41" type="curve" smooth="yes"/>
      <point x="1176" y="-41"/>
      <point x="1542" y="106"/>
      <point x="1542" y="504" type="curve" smooth="yes"/>
      <point x="1542" y="913"/>
      <point x="1188" y="1053"/>
      <point x="865" y="1053" type="curve" smooth="yes"/>
      <point x="665" y="1053"/>
      <point x="494" y="989"/>
      <point x="386" y="855" type="curve" smooth="yes"/>
      <point x="384" y="855"/>
      <point x="382" y="851"/>
      <point x="380" y="851" type="curve" smooth="yes"/>
      <point x="380" y="851"/>
      <point x="379" y="852"/>
      <point x="379" y="859" type="curve" smooth="yes"/>
      <point x="379" y="1372" type="line" smooth="yes"/>
      <point x="379" y="1415"/>
      <point x="355" y="1438"/>
      <point x="312" y="1438" type="curve" smooth="yes"/>
      <point x="227" y="1438" type="line" smooth="yes"/>
      <point x="184" y="1438"/>
      <point x="160" y="1415"/>
      <point x="160" y="1372" type="curve" smooth="yes"/>
      <point x="160" y="67" type="line" smooth="yes"/>
      <point x="160" y="24"/>
      <point x="170" y="0"/>
      <point x="213" y="0" type="curve" smooth="yes"/>
      <point x="224" y="0" type="line" smooth="yes"/>
      <point x="265" y="0"/>
      <point x="293" y="54"/>
      <point x="321" y="146" type="curve" smooth="yes"/>
      <point x="326" y="165"/>
      <point x="333" y="184"/>
      <point x="338" y="201" type="curve" smooth="yes"/>
      <point x="340" y="210"/>
      <point x="343" y="212"/>
      <point x="345" y="212" type="curve" smooth="yes"/>
      <point x="348" y="212"/>
      <point x="350" y="209"/>
      <point x="352" y="207" type="curve" smooth="yes"/>
      <point x="469" y="43"/>
      <point x="686" y="-41"/>
    </contour>
    <contour>
      <point x="852" y="116" type="curve" smooth="yes"/>
      <point x="594" y="116"/>
      <point x="379" y="244"/>
      <point x="379" y="504" type="curve" smooth="yes"/>
      <point x="379" y="788"/>
      <point x="610" y="896"/>
      <point x="852" y="896" type="curve" smooth="yes"/>
      <point x="1091" y="896"/>
      <point x="1323" y="792"/>
      <point x="1323" y="504" type="curve" smooth="yes"/>
      <point x="1323" y="240"/>
      <point x="1108" y="116"/>
    </contour>
  </outline>
</glyph>
<glyph name="d" format="1">
  <advance width="1671"/>
  <unicode hex="0064"/>
  <outline>
    <contour>
      <point x="787" y="-41" type="curve" smooth="yes"/>
      <point x="983" y="-41"/>
      <point x="1199" y="42"/>
      <point x="1315" y="203" type="curve" smooth="yes"/>
      <point x="1319" y="209"/>
      <point x="1323" y="214"/>
      <point x="1327" y="220" type="curve" smooth="yes"/>
      <point x="1327" y="220"/>
      <point x="1333" y="202"/>
      <point x="1333" y="202" type="curve" smooth="yes"/>
      <point x="1346" y="161"/>
      <point x="1359" y="113"/>
      <point x="1379" y="71" type="curve" smooth="yes"/>
      <point x="1399" y="31"/>
      <point x="1420" y="0"/>
      <point x="1445" y="0" type="curve" smooth="yes"/>
      <point x="1458" y="0" type="line" smooth="yes"/>
      <point x="1501" y="0"/>
      <point x="1511" y="24"/>
      <point x="1511" y="67" type="curve" smooth="yes"/>
      <point x="1511" y="1372" type="line" smooth="yes"/>
      <point x="1511" y="1415"/>
      <point x="1487" y="1438"/>
      <point x="1444" y="1438" type="curve" smooth="yes"/>
      <point x="1359" y="1438" type="line" smooth="yes"/>
      <point x="1316" y="1438"/>
      <point x="1292" y="1415"/>
      <point x="1292" y="1372" type="curve" smooth="yes"/>
      <point x="1292" y="864" type="line" smooth="yes"/>
      <point x="1292" y="864"/>
      <point x="1292" y="845"/>
      <point x="1292" y="845" type="curve" smooth="yes"/>
      <point x="1289" y="850"/>
      <point x="1285" y="854"/>
      <point x="1281" y="858" type="curve" smooth="yes"/>
      <point x="1174" y="990"/>
      <point x="1004" y="1053"/>
      <point x="806" y="1053" type="curve" smooth="yes"/>
      <point x="483" y="1053"/>
      <point x="129" y="913"/>
      <point x="129" y="504" type="curve" smooth="yes"/>
      <point x="129" y="106"/>
      <point x="495" y="-41"/>
    </contour>
    <contour>
      <point x="818" y="116" type="curve" smooth="yes"/>
      <point x="563" y="116"/>
      <point x="348" y="240"/>
      <point x="348" y="504" type="curve" smooth="yes"/>
      <point x="348" y="792"/>
      <point x="579" y="896"/>
      <point x="818" y="896" type="curve" smooth="yes"/>
      <point x="1062" y="896"/>
      <point x="1293" y="790"/>
      <point x="1292" y="504" type="curve" smooth="yes"/>
      <point x="1293" y="243"/>
      <point x="1078" y="116"/>
    </contour>
    <contour>
      <point x="836" y="503" type="move" name="center"/>
    </contour>
  </outline>
</glyph>
<glyph name="g" format="1">
  <advance width="1547"/>
  <unicode hex="0067"/>
  <outline>
    <contour>
      <point x="791" y="1006" type="move" name="top"/>
    </contour>
    <contour>
      <point x="773" y="-515" type="curve" smooth="yes"/>
      <point x="1247" y="-515"/>
      <point x="1464" y="-408"/>
      <point x="1464" y="-177" type="curve" smooth="yes"/>
      <point x="1464" y="18"/>
      <point x="1332" y="164"/>
      <point x="918" y="164" type="curve" smooth="yes"/>
      <point x="509" y="164" type="line" smooth="yes"/>
      <point x="351" y="164"/>
      <point x="351" y="208"/>
      <point x="351" y="246" type="curve" smooth="yes"/>
      <point x="351" y="277"/>
      <point x="384" y="317"/>
      <point x="420" y="345" type="curve" smooth="yes"/>
      <point x="446" y="364"/>
      <point x="484" y="386"/>
      <point x="500" y="383" type="curve" smooth="yes"/>
      <point x="576" y="366"/>
      <point x="678" y="356"/>
      <point x="792" y="356" type="curve" smooth="yes"/>
      <point x="1253" y="356"/>
      <point x="1355" y="513"/>
      <point x="1355" y="706" type="curve" smooth="yes"/>
      <point x="1355" y="824"/>
      <point x="1250" y="948"/>
      <point x="1064" y="1000" type="curve" smooth="yes"/>
      <point x="1048" y="1005"/>
      <point x="1041" y="1026"/>
      <point x="1051" y="1041" type="curve" smooth="yes"/>
      <point x="1287" y="1359" type="line" smooth="yes"/>
      <point x="1303" y="1384"/>
      <point x="1285" y="1418"/>
      <point x="1254" y="1418" type="curve" smooth="yes"/>
      <point x="1152" y="1418" type="line" smooth="yes"/>
      <point x="1112" y="1418"/>
      <point x="1077" y="1389"/>
      <point x="1070" y="1350" type="curve" smooth="yes"/>
      <point x="948" y="1067" type="line" smooth="yes"/>
      <point x="944" y="1050"/>
      <point x="926" y="1037"/>
      <point x="908" y="1039" type="curve" smooth="yes"/>
      <point x="865" y="1044"/>
      <point x="809" y="1052"/>
      <point x="755" y="1052" type="curve" smooth="yes"/>
      <point x="282" y="1052"/>
      <point x="140" y="889"/>
      <point x="140" y="706" type="curve" smooth="yes"/>
      <point x="140" y="615"/>
      <point x="185" y="527"/>
      <point x="330" y="451" type="curve" smooth="yes"/>
      <point x="336" y="448"/>
      <point x="346" y="448"/>
      <point x="346" y="441" type="curve" smooth="yes"/>
      <point x="346" y="433"/>
      <point x="335" y="428"/>
      <point x="327" y="423" type="curve" smooth="yes"/>
      <point x="249" y="374"/>
      <point x="165" y="279"/>
      <point x="165" y="184" type="curve" smooth="yes"/>
      <point x="165" y="97"/>
      <point x="235" y="80"/>
      <point x="368" y="50" type="curve" smooth="yes"/>
      <point x="375" y="48"/>
      <point x="388" y="45"/>
      <point x="388" y="39" type="curve" smooth="yes"/>
      <point x="388" y="34"/>
      <point x="376" y="24"/>
      <point x="370" y="21" type="curve" smooth="yes"/>
      <point x="253" y="-51"/>
      <point x="159" y="-135"/>
      <point x="159" y="-281" type="curve" smooth="yes"/>
      <point x="159" y="-417"/>
      <point x="334" y="-515"/>
    </contour>
    <contour>
      <point x="786" y="-359" type="curve" smooth="yes"/>
      <point x="413" y="-359"/>
      <point x="361" y="-282"/>
      <point x="361" y="-210" type="curve" smooth="yes"/>
      <point x="361" y="-102"/>
      <point x="506" y="17"/>
      <point x="600" y="17" type="curve" smooth="yes"/>
      <point x="900" y="17" type="line" smooth="yes"/>
      <point x="1125" y="17"/>
      <point x="1282" y="-32"/>
      <point x="1282" y="-137" type="curve" smooth="yes"/>
      <point x="1282" y="-272"/>
      <point x="1202" y="-359"/>
    </contour>
    <contour>
      <point x="755" y="502" type="curve" smooth="yes"/>
      <point x="403" y="502"/>
      <point x="350" y="614"/>
      <point x="350" y="710" type="curve" smooth="yes"/>
      <point x="350" y="793"/>
      <point x="398" y="902"/>
      <point x="749" y="902" type="curve" smooth="yes"/>
      <point x="1116" y="902"/>
      <point x="1153" y="798"/>
      <point x="1153" y="699" type="curve" smooth="yes"/>
      <point x="1153" y="609"/>
      <point x="1131" y="502"/>
    </contour>
  </outline>
</glyph>
<glyph name="m" format="1">
  <advance width="2523"/>
  <unicode hex="006D"/>
  <outline>
    <contour>
      <point x="219" y="0" type="curve" smooth="yes"/>
      <point x="305" y="0" type="line" smooth="yes"/>
      <point x="348" y="0"/>
      <point x="371" y="24"/>
      <point x="371" y="67" type="curve" smooth="yes"/>
      <point x="371" y="611" type="line" smooth="yes"/>
      <point x="371" y="743"/>
      <point x="633" y="904"/>
      <point x="830" y="904" type="curve" smooth="yes"/>
      <point x="1017" y="904"/>
      <point x="1156" y="836"/>
      <point x="1156" y="609" type="curve" smooth="yes"/>
      <point x="1156" y="67" type="line" smooth="yes"/>
      <point x="1156" y="24"/>
      <point x="1179" y="0"/>
      <point x="1222" y="0" type="curve" smooth="yes"/>
      <point x="1307" y="0" type="line" smooth="yes"/>
      <point x="1350" y="0"/>
      <point x="1374" y="24"/>
      <point x="1374" y="67" type="curve" smooth="yes"/>
      <point x="1374" y="607" type="line" smooth="yes"/>
      <point x="1375" y="606"/>
      <point x="1376" y="605"/>
      <point x="1376" y="610" type="curve" smooth="yes"/>
      <point x="1376" y="739"/>
      <point x="1620" y="905"/>
      <point x="1820" y="905" type="curve" smooth="yes"/>
      <point x="2006" y="905"/>
      <point x="2161" y="835"/>
      <point x="2161" y="609" type="curve" smooth="yes"/>
      <point x="2161" y="67" type="line" smooth="yes"/>
      <point x="2161" y="24"/>
      <point x="2185" y="0"/>
      <point x="2228" y="0" type="curve" smooth="yes"/>
      <point x="2313" y="0" type="line" smooth="yes"/>
      <point x="2356" y="0"/>
      <point x="2379" y="24"/>
      <point x="2379" y="67" type="curve" smooth="yes"/>
      <point x="2379" y="553" type="line" smooth="yes"/>
      <point x="2379" y="888"/>
      <point x="2171" y="1052"/>
      <point x="1859" y="1052" type="curve" smooth="yes"/>
      <point x="1669" y="1052"/>
      <point x="1478" y="990"/>
      <point x="1353" y="825" type="curve" smooth="yes"/>
      <point x="1339" y="806"/>
      <point x="1336" y="799"/>
      <point x="1328" y="799" type="curve" smooth="yes"/>
      <point x="1316" y="799"/>
      <point x="1314" y="810"/>
      <point x="1310" y="821" type="curve" smooth="yes"/>
      <point x="1232" y="982"/>
      <point x="1085" y="1052"/>
      <point x="870" y="1052" type="curve" smooth="yes"/>
      <point x="681" y="1052"/>
      <point x="496" y="987"/>
      <point x="366" y="826" type="curve" smooth="yes"/>
      <point x="360" y="819"/>
      <point x="354" y="811"/>
      <point x="346" y="811" type="curve" smooth="yes"/>
      <point x="338" y="811"/>
      <point x="336" y="816"/>
      <point x="331" y="824" type="curve" smooth="yes"/>
      <point x="305" y="942" type="line" smooth="yes"/>
      <point x="295" y="992"/>
      <point x="273" y="1006"/>
      <point x="226" y="1006" type="curve" smooth="yes"/>
      <point x="208" y="1006" type="line" smooth="yes"/>
      <point x="165" y="1006"/>
      <point x="152" y="972"/>
      <point x="152" y="929" type="curve" smooth="yes"/>
      <point x="152" y="67" type="line" smooth="yes"/>
      <point x="152" y="24"/>
      <point x="176" y="0"/>
    </contour>
  </outline>
</glyph>
<glyph name="s" format="1">
  <advance width="1550"/>
  <unicode hex="0073"/>
  <outline>
    <contour>
      <point x="794" y="-41" type="curve" smooth="yes"/>
      <point x="1294" y="-41"/>
      <point x="1416" y="97"/>
      <point x="1416" y="307" type="curve" smooth="yes"/>
      <point x="1416" y="568"/>
      <point x="1196" y="591"/>
      <point x="801" y="618" type="curve" smooth="yes"/>
      <point x="367" y="647"/>
      <point x="346" y="657"/>
      <point x="346" y="755" type="curve" smooth="yes"/>
      <point x="346" y="860"/>
      <point x="496" y="899"/>
      <point x="816" y="899" type="curve" smooth="yes"/>
      <point x="1008" y="899"/>
      <point x="1097" y="870"/>
      <point x="1197" y="839" type="curve" smooth="yes"/>
      <point x="1236" y="827"/>
      <point x="1283" y="830"/>
      <point x="1299" y="865" type="curve"/>
      <point x="1311" y="891" type="line"/>
      <point x="1326" y="922"/>
      <point x="1309" y="957"/>
      <point x="1275" y="970" type="curve" smooth="yes"/>
      <point x="1132" y="1023"/>
      <point x="989" y="1053"/>
      <point x="764" y="1053" type="curve" smooth="yes"/>
      <point x="533" y="1053"/>
      <point x="147" y="1034"/>
      <point x="147" y="735" type="curve" smooth="yes"/>
      <point x="147" y="507"/>
      <point x="392" y="464"/>
      <point x="761" y="450" type="curve" smooth="yes"/>
      <point x="1193" y="434"/>
      <point x="1233" y="393"/>
      <point x="1233" y="296" type="curve" smooth="yes"/>
      <point x="1233" y="180"/>
      <point x="1151" y="113"/>
      <point x="810" y="113" type="curve" smooth="yes"/>
      <point x="581" y="113"/>
      <point x="430" y="139"/>
      <point x="256" y="206" type="curve" smooth="yes"/>
      <point x="216" y="221"/>
      <point x="179" y="204"/>
      <point x="160" y="163" type="curve" smooth="yes"/>
      <point x="154" y="150" type="line" smooth="yes"/>
      <point x="139" y="116"/>
      <point x="158" y="72"/>
      <point x="190" y="59" type="curve" smooth="yes"/>
      <point x="377" y="-18"/>
      <point x="604" y="-41"/>
    </contour>
    <contour>
      <point x="775" y="1006" type="move" name="top"/>
    </contour>
    <contour>
      <point x="775" y="0" type="move" name="bottom"/>
    </contour>
  </outline>
</glyph>
<glyph name="v" format="1">
  <advance width="1523"/>
  <unicode hex="0076"/>
  <outline>
    <contour>
      <point x="723" y="1" type="curve" smooth="yes"/>
      <point x="821" y="1" type="line" smooth="yes"/>
      <point x="861" y="1"/>
      <point x="899" y="27"/>
      <point x="927" y="67" type="curve" smooth="yes"/>
      <point x="1408" y="939" type="line" smooth="yes"/>
      <point x="1420" y="957"/>
      <point x="1426" y="971"/>
      <point x="1426" y="983" type="curve" smooth="yes"/>
      <point x="1426" y="998"/>
      <point x="1413" y="1006"/>
      <point x="1389" y="1006" type="curve" smooth="yes"/>
      <point x="1272" y="1006" type="line" smooth="yes"/>
      <point x="1229" y="1006"/>
      <point x="1202" y="985"/>
      <point x="1179" y="939" type="curve" smooth="yes"/>
      <point x="790" y="169" type="line" smooth="yes"/>
      <point x="787" y="163"/>
      <point x="782" y="160"/>
      <point x="778" y="160" type="curve" smooth="yes"/>
      <point x="773" y="160"/>
      <point x="768" y="163"/>
      <point x="765" y="169" type="curve" smooth="yes"/>
      <point x="337" y="939" type="line" smooth="yes"/>
      <point x="312" y="982"/>
      <point x="296" y="1006"/>
      <point x="253" y="1006" type="curve" smooth="yes"/>
      <point x="139" y="1006" type="line" smooth="yes"/>
      <point x="111" y="1006"/>
      <point x="97" y="996"/>
      <point x="97" y="977" type="curve" smooth="yes"/>
      <point x="97" y="967"/>
      <point x="101" y="954"/>
      <point x="109" y="939" type="curve" smooth="yes"/>
      <point x="628" y="67" type="line" smooth="yes"/>
      <point x="651" y="27"/>
      <point x="684" y="1"/>
    </contour>
  </outline>
</glyph>
<glyph name="y" format="1">
  <advance width="1544"/>
  <unicode hex="0079"/>
  <outline>
    <contour>
      <point x="432" y="-437" type="curve" smooth="yes"/>
      <point x="688" y="-437"/>
      <point x="765" y="-316"/>
      <point x="826" y="-208" type="curve" smooth="yes"/>
      <point x="1463" y="936" type="line" smooth="yes"/>
      <point x="1467" y="943"/>
      <point x="1467" y="950"/>
      <point x="1467" y="957" type="curve" smooth="yes"/>
      <point x="1466" y="983"/>
      <point x="1444" y="1006"/>
      <point x="1415" y="1006" type="curve" smooth="yes"/>
      <point x="1315" y="1006" type="line" smooth="yes"/>
      <point x="1269" y="1005"/>
      <point x="1241" y="991"/>
      <point x="1215" y="933" type="curve" smooth="yes"/>
      <point x="1215" y="932"/>
      <point x="856" y="247"/>
      <point x="830" y="200" type="curve" smooth="yes"/>
      <point x="822" y="185"/>
      <point x="817" y="179"/>
      <point x="809" y="179" type="curve" smooth="yes"/>
      <point x="799" y="179"/>
      <point x="792" y="186"/>
      <point x="789" y="192" type="curve" smooth="yes"/>
      <point x="359" y="939" type="line" smooth="yes"/>
      <point x="334" y="982"/>
      <point x="318" y="1006"/>
      <point x="275" y="1006" type="curve" smooth="yes"/>
      <point x="161" y="1006" type="line" smooth="yes"/>
      <point x="133" y="1006"/>
      <point x="119" y="996"/>
      <point x="119" y="977" type="curve" smooth="yes"/>
      <point x="119" y="967"/>
      <point x="122" y="954"/>
      <point x="131" y="939" type="curve" smooth="yes"/>
      <point x="680" y="18" type="line" smooth="yes"/>
      <point x="679" y="19"/>
      <point x="709" y="-31"/>
      <point x="709" y="-30" type="curve" smooth="yes"/>
      <point x="676" y="-91"/>
      <point x="657" y="-129"/>
      <point x="658" y="-128" type="curve" smooth="yes"/>
      <point x="596" y="-253"/>
      <point x="500" y="-275"/>
      <point x="443" y="-276" type="curve" smooth="yes"/>
      <point x="425" y="-276" type="line" smooth="yes"/>
      <point x="394" y="-276"/>
      <point x="294" y="-263"/>
      <point x="243" y="-246" type="curve" smooth="yes"/>
      <point x="236" y="-244"/>
      <point x="228" y="-242"/>
      <point x="221" y="-242" type="curve" smooth="yes"/>
      <point x="196" y="-242"/>
      <point x="170" y="-254"/>
      <point x="161" y="-277" type="curve" smooth="yes"/>
      <point x="154" y="-308" type="line" smooth="yes"/>
      <point x="150" y="-320"/>
      <point x="148" y="-332"/>
      <point x="149" y="-344" type="curve" smooth="yes"/>
      <point x="150" y="-373"/>
      <point x="156" y="-378"/>
      <point x="177" y="-388" type="curve" smooth="yes"/>
      <point x="237" y="-418"/>
      <point x="330" y="-437"/>
    </contour>
    <contour>
      <point x="793" y="1006" type="move" name="top"/>
    </contour>
  </outline>
</glyph>
<glyph name="braceleft" format="1">
  <advance width="928"/>
  <unicode hex="007B"/>
  <outline>
    <contour>
      <point x="685" y="-119" type="curve" smooth="yes"/>
      <point x="729" y="-119" type="line" smooth="yes"/>
      <point x="771" y="-119"/>
      <point x="806" y="-104"/>
      <point x="806" y="-62" type="curve" smooth="yes"/>
      <point x="806" y="-14" type="line" smooth="yes"/>
      <point x="806" y="38"/>
      <point x="782" y="50"/>
      <point x="730" y="49" type="curve" smooth="yes"/>
      <point x="618" y="49"/>
      <point x="580" y="70"/>
      <point x="580" y="247" type="curve" smooth="yes"/>
      <point x="580" y="252" type="line" smooth="yes"/>
      <point x="580" y="416"/>
      <point x="581" y="672"/>
      <point x="455" y="699" type="curve" smooth="yes"/>
      <point x="448" y="701"/>
      <point x="445" y="706"/>
      <point x="445" y="712" type="curve" smooth="yes"/>
      <point x="445" y="718"/>
      <point x="448" y="723"/>
      <point x="455" y="725" type="curve" smooth="yes"/>
      <point x="580" y="753"/>
      <point x="580" y="1008"/>
      <point x="580" y="1172" type="curve" smooth="yes"/>
      <point x="580" y="1177" type="line" smooth="yes"/>
      <point x="580" y="1354"/>
      <point x="618" y="1375"/>
      <point x="730" y="1375" type="curve" smooth="yes"/>
      <point x="782" y="1374"/>
      <point x="806" y="1386"/>
      <point x="806" y="1438" type="curve" smooth="yes"/>
      <point x="806" y="1487" type="line" smooth="yes"/>
      <point x="806" y="1529"/>
      <point x="771" y="1543"/>
      <point x="729" y="1543" type="curve" smooth="yes"/>
      <point x="685" y="1543" type="line" smooth="yes"/>
      <point x="457" y="1543"/>
      <point x="411" y="1431"/>
      <point x="412" y="1205" type="curve" smooth="yes"/>
      <point x="413" y="875"/>
      <point x="375" y="814"/>
      <point x="280" y="816" type="curve" smooth="yes"/>
      <point x="280" y="816"/>
      <point x="217" y="816"/>
      <point x="217" y="816" type="curve" smooth="yes"/>
      <point x="148" y="816"/>
      <point x="125" y="802"/>
      <point x="125" y="712" type="curve" smooth="yes"/>
      <point x="125" y="622"/>
      <point x="148" y="608"/>
      <point x="217" y="608" type="curve" smooth="yes"/>
      <point x="217" y="608"/>
      <point x="280" y="608"/>
      <point x="280" y="609" type="curve" smooth="yes"/>
      <point x="375" y="610"/>
      <point x="413" y="549"/>
      <point x="412" y="219" type="curve" smooth="yes"/>
      <point x="411" y="-7"/>
      <point x="457" y="-119"/>
    </contour>
  </outline>
</glyph>
<glyph name="bar" format="1">
  <advance width="526"/>
  <unicode hex="007C"/>
  <outline>
    <contour>
      <point x="238" y="-150" type="curve" smooth="yes"/>
      <point x="288" y="-150" type="line" smooth="yes"/>
      <point x="331" y="-150"/>
      <point x="365" y="-137"/>
      <point x="365" y="-94" type="curve" smooth="yes"/>
      <point x="365" y="1499" type="line" smooth="yes"/>
      <point x="365" y="1542"/>
      <point x="331" y="1555"/>
      <point x="288" y="1555" type="curve" smooth="yes"/>
      <point x="238" y="1555" type="line" smooth="yes"/>
      <point x="195" y="1555"/>
      <point x="161" y="1542"/>
      <point x="161" y="1499" type="curve" smooth="yes"/>
      <point x="161" y="-94" type="line" smooth="yes"/>
      <point x="161" y="-137"/>
      <point x="195" y="-150"/>
    </contour>
  </outline>
</glyph>
<glyph name="asciitilde" format="1">
  <advance width="1394"/>
  <unicode hex="007E"/>
  <outline>
    <contour>
      <point x="428" y="745" type="curve" smooth="yes"/>
      <point x="620" y="745"/>
      <point x="811" y="918"/>
      <point x="963" y="918" type="curve" smooth="yes"/>
      <point x="1027" y="918"/>
      <point x="1076" y="873"/>
      <point x="1119" y="798" type="curve" smooth="yes"/>
      <point x="1128" y="783"/>
      <point x="1140" y="770"/>
      <point x="1161" y="770" type="curve" smooth="yes"/>
      <point x="1170" y="770"/>
      <point x="1184" y="773"/>
      <point x="1200" y="781" type="curve"/>
      <point x="1200" y="781"/>
      <point x="1230" y="801"/>
      <point x="1240" y="809" type="curve" smooth="yes"/>
      <point x="1257" y="821"/>
      <point x="1267" y="834"/>
      <point x="1267" y="850" type="curve" smooth="yes"/>
      <point x="1267" y="857"/>
      <point x="1265" y="866"/>
      <point x="1261" y="876" type="curve" smooth="yes"/>
      <point x="1207" y="993"/>
      <point x="1101" y="1099"/>
      <point x="937" y="1099" type="curve" smooth="yes"/>
      <point x="763" y="1099"/>
      <point x="563" y="931"/>
      <point x="432" y="931" type="curve" smooth="yes"/>
      <point x="370" y="931"/>
      <point x="325" y="976"/>
      <point x="284" y="1061" type="curve" smooth="yes"/>
      <point x="281" y="1069"/>
      <point x="269" y="1088"/>
      <point x="244" y="1088" type="curve" smooth="yes"/>
      <point x="238" y="1088"/>
      <point x="229" y="1087"/>
      <point x="219" y="1082" type="curve" smooth="yes"/>
      <point x="147" y="1049" type="line" smooth="yes"/>
      <point x="124" y="1038"/>
      <point x="118" y="1025"/>
      <point x="118" y="1012" type="curve" smooth="yes"/>
      <point x="118" y="1004"/>
      <point x="119" y="997"/>
      <point x="122" y="988" type="curve" smooth="yes"/>
      <point x="158" y="879"/>
      <point x="234" y="745"/>
    </contour>
  </outline>
</glyph>
<glyph name="yen" format="1">
  <advance width="1670"/>
  <unicode hex="00A5"/>
  <outline>
    <contour>
      <point x="793" y="0" type="curve" smooth="yes"/>
      <point x="874" y="0" type="line" smooth="yes"/>
      <point x="917" y="0"/>
      <point x="941" y="24"/>
      <point x="941" y="67" type="curve" smooth="yes"/>
      <point x="941" y="234" type="line"/>
      <point x="1209" y="234" type="line" smooth="yes"/>
      <point x="1252" y="234"/>
      <point x="1256" y="247"/>
      <point x="1256" y="290" type="curve" smooth="yes"/>
      <point x="1256" y="321" type="line" smooth="yes"/>
      <point x="1256" y="364"/>
      <point x="1252" y="378"/>
      <point x="1209" y="378" type="curve" smooth="yes"/>
      <point x="941" y="378" type="line"/>
      <point x="939" y="573" type="line"/>
      <point x="1241" y="573" type="line" smooth="yes"/>
      <point x="1284" y="573"/>
      <point x="1288" y="586"/>
      <point x="1288" y="629" type="curve" smooth="yes"/>
      <point x="1288" y="660" type="line" smooth="yes"/>
      <point x="1288" y="703"/>
      <point x="1284" y="717"/>
      <point x="1241" y="717" type="curve" smooth="yes"/>
      <point x="935" y="717" type="line"/>
      <point x="1560" y="1371" type="line" smooth="yes"/>
      <point x="1581" y="1389"/>
      <point x="1588" y="1407"/>
      <point x="1588" y="1418" type="curve" smooth="yes"/>
      <point x="1588" y="1431"/>
      <point x="1577" y="1438"/>
      <point x="1554" y="1438" type="curve" smooth="yes"/>
      <point x="1419" y="1438" type="line" smooth="yes"/>
      <point x="1377" y="1438"/>
      <point x="1332" y="1414"/>
      <point x="1292" y="1371" type="curve" smooth="yes"/>
      <point x="837" y="882" type="line"/>
      <point x="375" y="1371" type="line" smooth="yes"/>
      <point x="331" y="1414"/>
      <point x="284" y="1438"/>
      <point x="241" y="1438" type="curve" smooth="yes"/>
      <point x="110" y="1438" type="line" smooth="yes"/>
      <point x="88" y="1438"/>
      <point x="77" y="1432"/>
      <point x="77" y="1421" type="curve" smooth="yes"/>
      <point x="77" y="1409"/>
      <point x="87" y="1391"/>
      <point x="110" y="1371" type="curve" smooth="yes"/>
      <point x="728" y="717" type="line"/>
      <point x="423" y="717" type="line" smooth="yes"/>
      <point x="380" y="717"/>
      <point x="376" y="703"/>
      <point x="376" y="660" type="curve" smooth="yes"/>
      <point x="376" y="629" type="line" smooth="yes"/>
      <point x="376" y="586"/>
      <point x="380" y="573"/>
      <point x="423" y="573" type="curve" smooth="yes"/>
      <point x="729" y="573" type="line"/>
      <point x="726" y="378" type="line"/>
      <point x="487" y="378" type="line" smooth="yes"/>
      <point x="444" y="378"/>
      <point x="440" y="364"/>
      <point x="440" y="321" type="curve" smooth="yes"/>
      <point x="440" y="290" type="line" smooth="yes"/>
      <point x="440" y="247"/>
      <point x="444" y="234"/>
      <point x="487" y="234" type="curve" smooth="yes"/>
      <point x="726" y="234" type="line"/>
      <point x="726" y="67" type="line" smooth="yes"/>
      <point x="726" y="24"/>
      <point x="750" y="0"/>
    </contour>
  </outline>
</glyph>
<glyph name="section" format="1">
  <advance width="1574"/>
  <unicode hex="00A7"/>
  <outline>
    <contour>
      <point x="803" y="-40" type="curve" smooth="yes"/>
      <point x="1303" y="-40"/>
      <point x="1426" y="98"/>
      <point x="1426" y="308" type="curve" smooth="yes"/>
      <point x="1426" y="409"/>
      <point x="1393" y="474"/>
      <point x="1330" y="518" type="curve"/>
      <point x="1378" y="574"/>
      <point x="1426" y="650"/>
      <point x="1426" y="730" type="curve" smooth="yes"/>
      <point x="1426" y="991"/>
      <point x="1206" y="1014"/>
      <point x="810" y="1041" type="curve" smooth="yes"/>
      <point x="377" y="1070"/>
      <point x="356" y="1080"/>
      <point x="356" y="1178" type="curve" smooth="yes"/>
      <point x="356" y="1283"/>
      <point x="505" y="1322"/>
      <point x="825" y="1322" type="curve" smooth="yes"/>
      <point x="1018" y="1322"/>
      <point x="1106" y="1293"/>
      <point x="1206" y="1262" type="curve" smooth="yes"/>
      <point x="1245" y="1250"/>
      <point x="1292" y="1253"/>
      <point x="1308" y="1288" type="curve"/>
      <point x="1320" y="1314" type="line"/>
      <point x="1335" y="1345"/>
      <point x="1318" y="1380"/>
      <point x="1284" y="1393" type="curve" smooth="yes"/>
      <point x="1141" y="1446"/>
      <point x="998" y="1476"/>
      <point x="774" y="1476" type="curve" smooth="yes"/>
      <point x="542" y="1476"/>
      <point x="156" y="1457"/>
      <point x="156" y="1158" type="curve" smooth="yes"/>
      <point x="156" y="1060"/>
      <point x="202" y="996"/>
      <point x="283" y="954" type="curve"/>
      <point x="210" y="899"/>
      <point x="156" y="821"/>
      <point x="156" y="736" type="curve" smooth="yes"/>
      <point x="156" y="508"/>
      <point x="402" y="465"/>
      <point x="771" y="451" type="curve" smooth="yes"/>
      <point x="1203" y="435"/>
      <point x="1243" y="394"/>
      <point x="1243" y="297" type="curve" smooth="yes"/>
      <point x="1243" y="181"/>
      <point x="1160" y="114"/>
      <point x="820" y="114" type="curve" smooth="yes"/>
      <point x="590" y="114"/>
      <point x="439" y="140"/>
      <point x="265" y="207" type="curve" smooth="yes"/>
      <point x="225" y="222"/>
      <point x="189" y="205"/>
      <point x="170" y="164" type="curve" smooth="yes"/>
      <point x="163" y="151" type="line" smooth="yes"/>
      <point x="148" y="117"/>
      <point x="167" y="73"/>
      <point x="200" y="60" type="curve" smooth="yes"/>
      <point x="387" y="-17"/>
      <point x="613" y="-40"/>
    </contour>
    <contour>
      <point x="1195" y="574" type="curve"/>
      <point x="1096" y="599"/>
      <point x="966" y="608"/>
      <point x="810" y="619" type="curve" smooth="yes"/>
      <point x="380" y="648"/>
      <point x="357" y="675"/>
      <point x="357" y="755" type="curve" smooth="yes"/>
      <point x="357" y="792"/>
      <point x="370" y="857"/>
      <point x="408" y="910" type="curve"/>
      <point x="507" y="888"/>
      <point x="630" y="878"/>
      <point x="771" y="873" type="curve" smooth="yes"/>
      <point x="1203" y="857"/>
      <point x="1239" y="816"/>
      <point x="1239" y="719" type="curve" smooth="yes"/>
      <point x="1239" y="693"/>
      <point x="1195" y="574"/>
    </contour>
  </outline>
</glyph>
<glyph name="degree" format="1">
  <advance width="1323"/>
  <unicode hex="00B0"/>
  <outline>
    <contour>
      <point x="664" y="108" type="curve" smooth="yes"/>
      <point x="374" y="108"/>
      <point x="266" y="324"/>
      <point x="266" y="511" type="curve" smooth="yes"/>
      <point x="266" y="706"/>
      <point x="374" y="916"/>
      <point x="664" y="916" type="curve" smooth="yes"/>
      <point x="954" y="916"/>
      <point x="1062" y="706"/>
      <point x="1062" y="511" type="curve" smooth="yes"/>
      <point x="1062" y="324"/>
      <point x="954" y="108"/>
    </contour>
    <contour>
      <point x="662" y="-9" type="curve" smooth="yes"/>
      <point x="1016" y="-9"/>
      <point x="1192" y="240"/>
      <point x="1192" y="514" type="curve" smooth="yes"/>
      <point x="1192" y="789"/>
      <point x="1016" y="1037"/>
      <point x="662" y="1037" type="curve" smooth="yes"/>
      <point x="308" y="1037"/>
      <point x="131" y="789"/>
      <point x="131" y="514" type="curve" smooth="yes"/>
      <point x="131" y="240"/>
      <point x="308" y="-9"/>
    </contour>
  </outline>
</glyph>
<glyph name="plusminus" format="1">
  <advance width="1289"/>
  <unicode hex="00B1"/>
  <outline>
    <contour>
      <point x="570" y="174" type="curve" smooth="yes"/>
      <point x="646" y="174" type="line" smooth="yes"/>
      <point x="689" y="174"/>
      <point x="702" y="198"/>
      <point x="702" y="241" type="curve" smooth="yes"/>
      <point x="702" y="565" type="line" smooth="yes"/>
      <point x="702" y="585"/>
      <point x="709" y="602"/>
      <point x="729" y="602" type="curve" smooth="yes"/>
      <point x="1031" y="602" type="line" smooth="yes"/>
      <point x="1074" y="602"/>
      <point x="1087" y="616"/>
      <point x="1087" y="659" type="curve" smooth="yes"/>
      <point x="1087" y="738" type="line" smooth="yes"/>
      <point x="1087" y="781"/>
      <point x="1074" y="794"/>
      <point x="1031" y="794" type="curve" smooth="yes"/>
      <point x="729" y="794" type="line" smooth="yes"/>
      <point x="709" y="794"/>
      <point x="702" y="810"/>
      <point x="702" y="830" type="curve" smooth="yes"/>
      <point x="702" y="1166" type="line" smooth="yes"/>
      <point x="702" y="1209"/>
      <point x="689" y="1233"/>
      <point x="646" y="1233" type="curve" smooth="yes"/>
      <point x="570" y="1233" type="line" smooth="yes"/>
      <point x="527" y="1233"/>
      <point x="514" y="1209"/>
      <point x="514" y="1166" type="curve" smooth="yes"/>
      <point x="514" y="830" type="line" smooth="yes"/>
      <point x="514" y="810"/>
      <point x="507" y="794"/>
      <point x="487" y="794" type="curve" smooth="yes"/>
      <point x="186" y="794" type="line" smooth="yes"/>
      <point x="143" y="794"/>
      <point x="129" y="781"/>
      <point x="129" y="738" type="curve" smooth="yes"/>
      <point x="129" y="659" type="line" smooth="yes"/>
      <point x="129" y="616"/>
      <point x="143" y="602"/>
      <point x="186" y="602" type="curve" smooth="yes"/>
      <point x="487" y="602" type="line" smooth="yes"/>
      <point x="507" y="602"/>
      <point x="514" y="585"/>
      <point x="514" y="565" type="curve" smooth="yes"/>
      <point x="514" y="241" type="line" smooth="yes"/>
      <point x="514" y="198"/>
      <point x="527" y="174"/>
    </contour>
    <contour>
      <point x="158" y="-36" type="curve" smooth="yes"/>
      <point x="1048" y="-36" type="line" smooth="yes"/>
      <point x="1091" y="-36"/>
      <point x="1115" y="-11"/>
      <point x="1115" y="31" type="curve" smooth="yes"/>
      <point x="1115" y="78" type="line" smooth="yes"/>
      <point x="1115" y="121"/>
      <point x="1091" y="145"/>
      <point x="1048" y="145" type="curve" smooth="yes"/>
      <point x="158" y="145" type="line" smooth="yes"/>
      <point x="115" y="145"/>
      <point x="91" y="121"/>
      <point x="91" y="78" type="curve" smooth="yes"/>
      <point x="91" y="31" type="line" smooth="yes"/>
      <point x="91" y="-13"/>
      <point x="115" y="-36"/>
    </contour>
  </outline>
</glyph>
<glyph name="paragraph" format="1">
  <advance width="1256"/>
  <unicode hex="00B6"/>
  <outline>
    <contour>
      <point x="584" y="-1" type="curve" smooth="yes"/>
      <point x="660" y="-1" type="line" smooth="yes"/>
      <point x="703" y="-1"/>
      <point x="716" y="33"/>
      <point x="716" y="76" type="curve" smooth="yes"/>
      <point x="716" y="834" type="line"/>
      <point x="889" y="834" type="line" smooth="yes"/>
      <point x="899" y="834"/>
      <point x="908" y="825"/>
      <point x="908" y="813" type="curve" smooth="yes"/>
      <point x="908" y="76" type="line" smooth="yes"/>
      <point x="908" y="33"/>
      <point x="922" y="-1"/>
      <point x="965" y="-1" type="curve" smooth="yes"/>
      <point x="1041" y="-1" type="line" smooth="yes"/>
      <point x="1084" y="-1"/>
      <point x="1097" y="33"/>
      <point x="1097" y="76" type="curve" smooth="yes"/>
      <point x="1097" y="1338" type="line" smooth="yes"/>
      <point x="1097" y="1381"/>
      <point x="1074" y="1409"/>
      <point x="1031" y="1416" type="curve" smooth="yes"/>
      <point x="967" y="1426"/>
      <point x="855" y="1438"/>
      <point x="610" y="1438" type="curve" smooth="yes"/>
      <point x="239" y="1438"/>
      <point x="119" y="1329"/>
      <point x="119" y="1137" type="curve" smooth="yes"/>
      <point x="119" y="937"/>
      <point x="241" y="834"/>
      <point x="508" y="834" type="curve" smooth="yes"/>
      <point x="528" y="834" type="line"/>
      <point x="528" y="76" type="line" smooth="yes"/>
      <point x="528" y="33"/>
      <point x="541" y="-1"/>
    </contour>
  </outline>
</glyph>
<glyph name="cedilla" format="1">
  <advance width="716"/>
  <unicode hex="00B8"/>
  <outline>
    <contour>
      <point x="409" y="0" type="move" name="_bottom"/>
    </contour>
    <contour>
      <point x="403" y="-478" type="curve" smooth="yes"/>
      <point x="547" y="-478"/>
      <point x="619" y="-384"/>
      <point x="619" y="-206" type="curve" smooth="yes"/>
      <point x="619" y="-95"/>
      <point x="546" y="8"/>
      <point x="438" y="8" type="curve" smooth="yes"/>
      <point x="363" y="8" type="line" smooth="yes"/>
      <point x="350" y="8"/>
      <point x="347" y="1"/>
      <point x="347" y="-9" type="curve" smooth="yes"/>
      <point x="347" y="-80" type="line" smooth="yes"/>
      <point x="347" y="-91"/>
      <point x="363" y="-90"/>
      <point x="363" y="-90" type="curve"/>
      <point x="402" y="-90" type="line" smooth="yes"/>
      <point x="452" y="-90"/>
      <point x="483" y="-167"/>
      <point x="483" y="-243" type="curve" smooth="yes"/>
      <point x="483" y="-354"/>
      <point x="457" y="-394"/>
      <point x="410" y="-394" type="curve" smooth="yes"/>
      <point x="360" y="-394"/>
      <point x="338" y="-351"/>
      <point x="338" y="-298" type="curve" smooth="yes"/>
      <point x="338" y="-281"/>
      <point x="340" y="-263"/>
      <point x="343" y="-245" type="curve" smooth="yes"/>
      <point x="346" y="-225"/>
      <point x="333" y="-209"/>
      <point x="312" y="-209" type="curve" smooth="yes"/>
      <point x="249" y="-209" type="line" smooth="yes"/>
      <point x="230" y="-209"/>
      <point x="209" y="-225"/>
      <point x="205" y="-244" type="curve" smooth="yes"/>
      <point x="201" y="-263"/>
      <point x="199" y="-282"/>
      <point x="199" y="-300" type="curve" smooth="yes"/>
      <point x="199" y="-408"/>
      <point x="289" y="-478"/>
    </contour>
  </outline>
</glyph>
<glyph name="guillemotright" format="1">
  <advance width="1352"/>
  <unicode hex="00BB"/>
  <outline>
    <contour>
      <point x="184" y="251" type="curve" smooth="yes"/>
      <point x="192" y="251"/>
      <point x="198" y="253"/>
      <point x="203" y="255" type="curve" smooth="yes"/>
      <point x="653" y="582" type="line"/>
      <point x="685" y="607"/>
      <point x="713" y="623"/>
      <point x="713" y="664" type="curve" smooth="yes"/>
      <point x="713" y="720" type="line" smooth="yes"/>
      <point x="713" y="761"/>
      <point x="685" y="778"/>
      <point x="653" y="802" type="curve"/>
      <point x="202" y="1144" type="line" smooth="yes"/>
      <point x="197" y="1145"/>
      <point x="190" y="1148"/>
      <point x="184" y="1148" type="curve" smooth="yes"/>
      <point x="164" y="1148"/>
      <point x="144" y="1132"/>
      <point x="144" y="1107" type="curve" smooth="yes"/>
      <point x="144" y="1018" type="line" smooth="yes"/>
      <point x="144" y="976"/>
      <point x="171" y="959"/>
      <point x="206" y="939" type="curve"/>
      <point x="527" y="704" type="line"/>
      <point x="532" y="700"/>
      <point x="536" y="695"/>
      <point x="536" y="691" type="curve" smooth="yes"/>
      <point x="536" y="686"/>
      <point x="533" y="681"/>
      <point x="527" y="677" type="curve"/>
      <point x="206" y="445" type="line"/>
      <point x="172" y="423"/>
      <point x="144" y="407"/>
      <point x="144" y="366" type="curve" smooth="yes"/>
      <point x="144" y="292" type="line" smooth="yes"/>
      <point x="144" y="268"/>
      <point x="164" y="251"/>
    </contour>
    <contour>
      <point x="701" y="251" type="curve" smooth="yes"/>
      <point x="708" y="251"/>
      <point x="714" y="253"/>
      <point x="720" y="255" type="curve" smooth="yes"/>
      <point x="1169" y="582" type="line"/>
      <point x="1202" y="607"/>
      <point x="1229" y="623"/>
      <point x="1229" y="664" type="curve" smooth="yes"/>
      <point x="1229" y="720" type="line" smooth="yes"/>
      <point x="1229" y="761"/>
      <point x="1202" y="778"/>
      <point x="1170" y="802" type="curve"/>
      <point x="719" y="1144" type="line" smooth="yes"/>
      <point x="713" y="1145"/>
      <point x="706" y="1148"/>
      <point x="700" y="1148" type="curve" smooth="yes"/>
      <point x="680" y="1148"/>
      <point x="661" y="1132"/>
      <point x="661" y="1107" type="curve" smooth="yes"/>
      <point x="661" y="1018" type="line" smooth="yes"/>
      <point x="661" y="976"/>
      <point x="688" y="959"/>
      <point x="723" y="939" type="curve"/>
      <point x="1043" y="704" type="line"/>
      <point x="1049" y="700"/>
      <point x="1052" y="695"/>
      <point x="1052" y="691" type="curve" smooth="yes"/>
      <point x="1052" y="686"/>
      <point x="1049" y="681"/>
      <point x="1043" y="677" type="curve"/>
      <point x="723" y="445" type="line"/>
      <point x="690" y="423"/>
      <point x="661" y="407"/>
      <point x="661" y="366" type="curve" smooth="yes"/>
      <point x="661" y="292" type="line" smooth="yes"/>
      <point x="661" y="268"/>
      <point x="680" y="251"/>
    </contour>
  </outline>
</glyph>
<glyph name="onehalf" format="1">
  <advance width="4019"/>
  <unicode hex="00BD"/>
  <outline>
    <contour>
      <point x="2035" y="-1" type="curve" smooth="yes"/>
      <point x="2033" y="-1"/>
      <point x="3177" y="-2"/>
      <point x="3177" y="-3" type="curve" smooth="yes"/>
      <point x="3206" y="-3"/>
      <point x="3216" y="0"/>
      <point x="3216" y="31" type="curve" smooth="yes"/>
      <point x="3216" y="30"/>
      <point x="3217" y="67"/>
      <point x="3218" y="67" type="curve" smooth="yes"/>
      <point x="3218" y="101"/>
      <point x="3244" y="115"/>
      <point x="3225" y="115" type="curve" smooth="yes"/>
      <point x="3226" y="115"/>
      <point x="2270" y="114"/>
      <point x="2270" y="113" type="curve" smooth="yes"/>
      <point x="2242" y="113"/>
      <point x="2217" y="128"/>
      <point x="2216" y="153" type="curve" smooth="yes"/>
      <point x="2206" y="144"/>
      <point x="2171" y="160"/>
      <point x="2174" y="141" type="curve" smooth="yes"/>
      <point x="2303" y="566"/>
      <point x="3260" y="150"/>
      <point x="3279" y="686" type="curve" smooth="yes"/>
      <point x="3288" y="960"/>
      <point x="3025" y="1051"/>
      <point x="2623" y="1053" type="curve" smooth="yes"/>
      <point x="2448" y="1053"/>
      <point x="2178" y="990"/>
      <point x="2097" y="962" type="curve" smooth="yes"/>
      <point x="2079" y="953"/>
      <point x="2070" y="941"/>
      <point x="2069" y="915" type="curve" smooth="yes"/>
      <point x="2069" y="913"/>
      <point x="2068" y="911"/>
      <point x="2091" y="861" type="curve"/>
      <point x="2094" y="845"/>
      <point x="2107" y="838"/>
      <point x="2130" y="838" type="curve" smooth="yes"/>
      <point x="2139" y="838"/>
      <point x="2136" y="837"/>
      <point x="2138" y="841" type="curve" smooth="yes"/>
      <point x="2141" y="847"/>
      <point x="2365" y="928"/>
      <point x="2583" y="933" type="curve" smooth="yes"/>
      <point x="2985" y="945"/>
      <point x="3133" y="853"/>
      <point x="3138" y="717" type="curve" smooth="yes"/>
      <point x="3138" y="361"/>
      <point x="2163" y="792"/>
      <point x="2029" y="85" type="curve" smooth="yes"/>
      <point x="2027" y="79"/>
      <point x="2025" y="73"/>
      <point x="2023" y="66" type="curve" smooth="yes"/>
      <point x="2023" y="24"/>
      <point x="1991" y="-1"/>
    </contour>
    <contour>
      <point x="553" y="429" type="curve" smooth="yes"/>
      <point x="609" y="429" type="line" smooth="yes"/>
      <point x="639" y="429"/>
      <point x="656" y="445"/>
      <point x="656" y="475" type="curve" smooth="yes"/>
      <point x="656" y="1389" type="line" smooth="yes"/>
      <point x="656" y="1419"/>
      <point x="639" y="1435"/>
      <point x="609" y="1435" type="curve"/>
      <point x="288" y="1401" type="line"/>
      <point x="258" y="1401"/>
      <point x="241" y="1384"/>
      <point x="241" y="1354" type="curve" smooth="yes"/>
      <point x="241" y="1333" type="line" smooth="yes"/>
      <point x="241" y="1303"/>
      <point x="258" y="1286"/>
      <point x="288" y="1286" type="curve"/>
      <point x="480" y="1308" type="line"/>
      <point x="494" y="1308"/>
      <point x="506" y="1296"/>
      <point x="506" y="1282" type="curve" smooth="yes"/>
      <point x="506" y="475" type="line" smooth="yes"/>
      <point x="506" y="445"/>
      <point x="523" y="429"/>
    </contour>
    <contour>
      <point x="925" y="-205" type="curve"/>
      <point x="925" y="-205"/>
      <point x="1057" y="-205"/>
      <point x="1057" y="-206" type="curve" smooth="yes"/>
      <point x="1079" y="-206"/>
      <point x="1057" y="-283"/>
      <point x="1068" y="-262" type="curve" smooth="yes"/>
      <point x="1068" y="-262"/>
      <point x="1995" y="1613"/>
      <point x="1997" y="1612" type="curve" smooth="yes"/>
      <point x="2007" y="1628"/>
      <point x="1997" y="1647"/>
      <point x="1980" y="1647" type="curve" smooth="yes"/>
      <point x="1980" y="1647"/>
      <point x="1847" y="1647"/>
      <point x="1848" y="1648" type="curve" smooth="yes"/>
      <point x="1826" y="1648"/>
      <point x="1847" y="1725"/>
      <point x="1837" y="1704" type="curve" smooth="yes"/>
      <point x="1837" y="1704"/>
      <point x="910" y="-171"/>
      <point x="908" y="-171" type="curve" smooth="yes"/>
      <point x="898" y="-186"/>
      <point x="907" y="-205"/>
    </contour>
  </outline>
</glyph>
<glyph name="AE" format="1">
  <advance width="2128"/>
  <unicode hex="00C6"/>
  <outline>
    <contour>
      <point x="1064" y="1438" type="move" name="top"/>
    </contour>
    <contour>
      <point x="150" y="0" type="curve" smooth="yes"/>
      <point x="243" y="0" type="line" smooth="yes"/>
      <point x="286" y="0"/>
      <point x="322" y="24"/>
      <point x="342" y="67" type="curve"/>
      <point x="476" y="336" type="line"/>
      <point x="476" y="336"/>
      <point x="485" y="342"/>
      <point x="485" y="342" type="curve" smooth="yes"/>
      <point x="954" y="342" type="line"/>
      <point x="954" y="67" type="line" smooth="yes"/>
      <point x="954" y="24"/>
      <point x="977" y="0"/>
      <point x="1020" y="0" type="curve" smooth="yes"/>
      <point x="1924" y="0" type="line" smooth="yes"/>
      <point x="1967" y="0"/>
      <point x="1991" y="34"/>
      <point x="1991" y="77" type="curve" smooth="yes"/>
      <point x="1991" y="79" type="line" smooth="yes"/>
      <point x="1991" y="122"/>
      <point x="1967" y="155"/>
      <point x="1924" y="155" type="curve" smooth="yes"/>
      <point x="1183" y="155" type="line" smooth="yes"/>
      <point x="1184" y="155"/>
      <point x="1170" y="172"/>
      <point x="1170" y="172" type="curve" smooth="yes"/>
      <point x="1170" y="648" type="line" smooth="yes"/>
      <point x="1170" y="648"/>
      <point x="1190" y="665"/>
      <point x="1189" y="665" type="curve" smooth="yes"/>
      <point x="1814" y="665" type="line" smooth="yes"/>
      <point x="1857" y="665"/>
      <point x="1880" y="699"/>
      <point x="1880" y="742" type="curve" smooth="yes"/>
      <point x="1880" y="745" type="line" smooth="yes"/>
      <point x="1880" y="788"/>
      <point x="1857" y="822"/>
      <point x="1814" y="822" type="curve" smooth="yes"/>
      <point x="1183" y="822" type="line" smooth="yes"/>
      <point x="1184" y="822"/>
      <point x="1170" y="848"/>
      <point x="1170" y="848" type="curve" smooth="yes"/>
      <point x="1170" y="1258" type="line" smooth="yes"/>
      <point x="1170" y="1278"/>
      <point x="1177" y="1283"/>
      <point x="1197" y="1283" type="curve" smooth="yes"/>
      <point x="1926" y="1283" type="line" smooth="yes"/>
      <point x="1969" y="1283"/>
      <point x="1993" y="1317"/>
      <point x="1993" y="1360" type="curve" smooth="yes"/>
      <point x="1993" y="1361" type="line" smooth="yes"/>
      <point x="1993" y="1404"/>
      <point x="1969" y="1438"/>
      <point x="1926" y="1438" type="curve" smooth="yes"/>
      <point x="903" y="1438" type="line" smooth="yes"/>
      <point x="863" y="1435"/>
      <point x="831" y="1412"/>
      <point x="811" y="1371" type="curve" smooth="yes"/>
      <point x="115" y="67" type="line" smooth="yes"/>
      <point x="108" y="53"/>
      <point x="105" y="42"/>
      <point x="105" y="32" type="curve" smooth="yes"/>
      <point x="105" y="11"/>
      <point x="121" y="0"/>
    </contour>
    <contour>
      <point x="550" y="471" type="line"/>
      <point x="546" y="471"/>
      <point x="544" y="473"/>
      <point x="544" y="475" type="curve" smooth="yes"/>
      <point x="544" y="476"/>
      <point x="545" y="477"/>
      <point x="545" y="478" type="curve" smooth="yes"/>
      <point x="951" y="1282" type="line" smooth="yes"/>
      <point x="952" y="1282"/>
      <point x="952" y="1284"/>
      <point x="953" y="1284" type="curve" smooth="yes"/>
      <point x="953" y="1284"/>
      <point x="954" y="1283"/>
      <point x="954" y="1283" type="curve"/>
      <point x="954" y="471" type="line"/>
    </contour>
  </outline>
</glyph>
<glyph name="Thorn" format="1">
  <advance width="1825"/>
  <unicode hex="00DE"/>
  <outline>
    <contour>
      <point x="227" y="0" type="curve" smooth="yes"/>
      <point x="308" y="0" type="line" smooth="yes"/>
      <point x="351" y="0"/>
      <point x="375" y="24"/>
      <point x="375" y="67" type="curve" smooth="yes"/>
      <point x="375" y="287" type="line" smooth="yes"/>
      <point x="375" y="286"/>
      <point x="394" y="306"/>
      <point x="394" y="306" type="curve" smooth="yes"/>
      <point x="390" y="306"/>
      <point x="698" y="306"/>
      <point x="694" y="306" type="curve" smooth="yes"/>
      <point x="1226" y="306"/>
      <point x="1699" y="309"/>
      <point x="1699" y="789" type="curve" smooth="yes"/>
      <point x="1699" y="1217"/>
      <point x="1093" y="1222"/>
      <point x="634" y="1222" type="curve" smooth="yes"/>
      <point x="375" y="1222" type="line"/>
      <point x="375" y="1371" type="line" smooth="yes"/>
      <point x="375" y="1414"/>
      <point x="351" y="1438"/>
      <point x="308" y="1438" type="curve" smooth="yes"/>
      <point x="227" y="1438" type="line" smooth="yes"/>
      <point x="184" y="1438"/>
      <point x="160" y="1414"/>
      <point x="160" y="1371" type="curve" smooth="yes"/>
      <point x="160" y="67" type="line" smooth="yes"/>
      <point x="160" y="24"/>
      <point x="184" y="0"/>
    </contour>
    <contour>
      <point x="391" y="479" type="line"/>
      <point x="391" y="479"/>
      <point x="375" y="500"/>
      <point x="375" y="500" type="curve" smooth="yes"/>
      <point x="375" y="1051" type="line" smooth="yes"/>
      <point x="375" y="1050"/>
      <point x="392" y="1066"/>
      <point x="392" y="1066" type="curve" smooth="yes"/>
      <point x="639" y="1066" type="line" smooth="yes"/>
      <point x="1095" y="1066"/>
      <point x="1489" y="1063"/>
      <point x="1489" y="789" type="curve" smooth="yes"/>
      <point x="1489" y="483"/>
      <point x="1194" y="479"/>
      <point x="687" y="479" type="curve" smooth="yes"/>
    </contour>
  </outline>
</glyph>
<glyph name="eth" format="1">
  <advance width="1862"/>
  <unicode hex="00F0"/>
  <outline>
    <contour>
      <point x="947" y="-42" type="curve" smooth="yes"/>
      <point x="1536" y="-42"/>
      <point x="1731" y="188"/>
      <point x="1731" y="598" type="curve" smooth="yes"/>
      <point x="1731" y="891"/>
      <point x="1502" y="1203"/>
      <point x="1170" y="1373" type="curve"/>
      <point x="1169" y="1372"/>
      <point x="1301" y="1514"/>
      <point x="1300" y="1513" type="curve" smooth="yes"/>
      <point x="1310" y="1523"/>
      <point x="1314" y="1536"/>
      <point x="1314" y="1548" type="curve" smooth="yes"/>
      <point x="1314" y="1561"/>
      <point x="1310" y="1574"/>
      <point x="1300" y="1584" type="curve" smooth="yes"/>
      <point x="1299" y="1584"/>
      <point x="1294" y="1589"/>
      <point x="1268" y="1616" type="curve" smooth="yes"/>
      <point x="1258" y="1626"/>
      <point x="1245" y="1631"/>
      <point x="1232" y="1631" type="curve" smooth="yes"/>
      <point x="1218" y="1631"/>
      <point x="1205" y="1626"/>
      <point x="1195" y="1615" type="curve" smooth="yes"/>
      <point x="1196" y="1616"/>
      <point x="1029" y="1437"/>
      <point x="1031" y="1438" type="curve"/>
      <point x="906" y="1490"/>
      <point x="779" y="1527"/>
      <point x="666" y="1547" type="curve" smooth="yes"/>
      <point x="659" y="1548"/>
      <point x="653" y="1549"/>
      <point x="648" y="1549" type="curve" smooth="yes"/>
      <point x="623" y="1549"/>
      <point x="620" y="1536"/>
      <point x="612" y="1516" type="curve" smooth="yes"/>
      <point x="580" y="1436" type="line" smooth="yes"/>
      <point x="578" y="1430"/>
      <point x="577" y="1424"/>
      <point x="577" y="1419" type="curve" smooth="yes"/>
      <point x="577" y="1401"/>
      <point x="591" y="1390"/>
      <point x="608" y="1382" type="curve" smooth="yes"/>
      <point x="699" y="1349"/>
      <point x="793" y="1317"/>
      <point x="885" y="1281" type="curve"/>
      <point x="886" y="1282"/>
      <point x="733" y="1117"/>
      <point x="734" y="1118" type="curve" smooth="yes"/>
      <point x="724" y="1108"/>
      <point x="719" y="1095"/>
      <point x="719" y="1082" type="curve" smooth="yes"/>
      <point x="719" y="1067"/>
      <point x="726" y="1053"/>
      <point x="735" y="1044" type="curve" smooth="yes"/>
      <point x="765" y="1016" type="line" smooth="yes"/>
      <point x="775" y="1006"/>
      <point x="788" y="1001"/>
      <point x="801" y="1001" type="curve" smooth="yes"/>
      <point x="815" y="1001"/>
      <point x="828" y="1006"/>
      <point x="838" y="1017" type="curve" smooth="yes"/>
      <point x="837" y="1016"/>
      <point x="1029" y="1223"/>
      <point x="1028" y="1222" type="curve"/>
      <point x="1238" y="1126"/>
      <point x="1420" y="995"/>
      <point x="1495" y="761" type="curve"/>
      <point x="1430" y="836"/>
      <point x="1238" y="896"/>
      <point x="911" y="896" type="curve" smooth="yes"/>
      <point x="290" y="896"/>
      <point x="128" y="682"/>
      <point x="128" y="425" type="curve" smooth="yes"/>
      <point x="128" y="60"/>
      <point x="490" y="-42"/>
    </contour>
    <contour>
      <point x="947" y="131" type="curve" smooth="yes"/>
      <point x="551" y="131"/>
      <point x="348" y="187"/>
      <point x="348" y="433" type="curve" smooth="yes"/>
      <point x="348" y="606"/>
      <point x="456" y="737"/>
      <point x="935" y="737" type="curve" smooth="yes"/>
      <point x="1240" y="737"/>
      <point x="1506" y="707"/>
      <point x="1506" y="457" type="curve" smooth="yes"/>
      <point x="1506" y="257"/>
      <point x="1317" y="131"/>
    </contour>
  </outline>
</glyph>
<glyph name="oslash" format="1">
  <advance width="1640"/>
  <unicode hex="00F8"/>
  <outline>
    <contour>
      <point x="820" y="1006" type="move" name="top"/>
    </contour>
    <contour>
      <point x="566" y="-202" type="line"/>
      <point x="584" y="-202"/>
      <point x="603" y="-189"/>
      <point x="611" y="-169" type="curve" smooth="yes"/>
      <point x="669" y="-29" type="line"/>
      <point x="722" y="-37"/>
      <point x="774" y="-41"/>
      <point x="823" y="-41" type="curve" smooth="yes"/>
      <point x="1115" y="-41"/>
      <point x="1512" y="110"/>
      <point x="1512" y="504" type="curve" smooth="yes"/>
      <point x="1512" y="794"/>
      <point x="1325" y="950"/>
      <point x="1101" y="1014" type="curve"/>
      <point x="1162" y="1164" type="line" smooth="yes"/>
      <point x="1168" y="1179"/>
      <point x="1159" y="1197"/>
      <point x="1145" y="1197" type="curve" smooth="yes"/>
      <point x="1068" y="1197" type="line" smooth="yes"/>
      <point x="1049" y="1197"/>
      <point x="1032" y="1184"/>
      <point x="1024" y="1164" type="curve" smooth="yes"/>
      <point x="973" y="1042" type="line"/>
      <point x="923" y="1049"/>
      <point x="873" y="1052"/>
      <point x="823" y="1052" type="curve" smooth="yes"/>
      <point x="494" y="1052"/>
      <point x="129" y="910"/>
      <point x="129" y="504" type="curve" smooth="yes"/>
      <point x="129" y="228"/>
      <point x="323" y="71"/>
      <point x="542" y="2" type="curve"/>
      <point x="472" y="-167" type="line" smooth="yes"/>
      <point x="465" y="-182"/>
      <point x="474" y="-200"/>
      <point x="489" y="-200" type="curve" smooth="yes"/>
    </contour>
    <contour>
      <point x="602" y="146" type="line"/>
      <point x="451" y="202"/>
      <point x="348" y="324"/>
      <point x="349" y="504" type="curve" smooth="yes"/>
      <point x="348" y="789"/>
      <point x="579" y="903"/>
      <point x="822" y="903" type="curve" smooth="yes"/>
      <point x="852" y="903"/>
      <point x="884" y="901"/>
      <point x="913" y="897" type="curve"/>
    </contour>
    <contour>
      <point x="822" y="108" type="curve" smooth="yes"/>
      <point x="789" y="108"/>
      <point x="758" y="110"/>
      <point x="728" y="114" type="curve"/>
      <point x="1039" y="867" type="line"/>
      <point x="1185" y="815"/>
      <point x="1292" y="700"/>
      <point x="1292" y="504" type="curve" smooth="yes"/>
      <point x="1292" y="241"/>
      <point x="1077" y="108"/>
    </contour>
  </outline>
</glyph>
<glyph name="oe" format="1">
  <advance width="2698"/>
  <unicode hex="0153"/>
  <outline>
    <contour>
      <point x="1995" y="-42" type="curve" smooth="yes"/>
      <point x="2177" y="-42"/>
      <point x="2395" y="8"/>
      <point x="2521" y="70" type="curve"/>
      <point x="2565" y="91"/>
      <point x="2558" y="113"/>
      <point x="2550" y="140" type="curve" smooth="yes"/>
      <point x="2542" y="168"/>
      <point x="2534" y="188"/>
      <point x="2532" y="194" type="curve" smooth="yes"/>
      <point x="2525" y="213"/>
      <point x="2502" y="220"/>
      <point x="2461" y="201" type="curve" smooth="yes"/>
      <point x="2395" y="170"/>
      <point x="2253" y="107"/>
      <point x="2007" y="107" type="curve" smooth="yes"/>
      <point x="1584" y="107"/>
      <point x="1510" y="316"/>
      <point x="1509" y="441" type="curve" smooth="yes"/>
      <point x="1509" y="448"/>
      <point x="1515" y="450"/>
      <point x="1526" y="450" type="curve" smooth="yes"/>
      <point x="2472" y="450" type="line" smooth="yes"/>
      <point x="2584" y="450"/>
      <point x="2598" y="523"/>
      <point x="2599" y="558" type="curve"/>
      <point x="2599" y="558"/>
      <point x="2599" y="610"/>
      <point x="2599" y="609" type="curve" smooth="yes"/>
      <point x="2562" y="802"/>
      <point x="2413" y="1052"/>
      <point x="1982" y="1052" type="curve" smooth="yes"/>
      <point x="1754" y="1052"/>
      <point x="1521" y="984"/>
      <point x="1401" y="803" type="curve"/>
      <point x="1279" y="983"/>
      <point x="1042" y="1052"/>
      <point x="816" y="1052" type="curve" smooth="yes"/>
      <point x="488" y="1052"/>
      <point x="131" y="910"/>
      <point x="131" y="504" type="curve" smooth="yes"/>
      <point x="131" y="109"/>
      <point x="520" y="-41"/>
      <point x="816" y="-41" type="curve" smooth="yes"/>
      <point x="1020" y="-41"/>
      <point x="1263" y="31"/>
      <point x="1393" y="208" type="curve"/>
      <point x="1509" y="21"/>
      <point x="1744" y="-42"/>
    </contour>
    <contour>
      <point x="1521" y="589" type="line"/>
      <point x="1514" y="589"/>
      <point x="1513" y="592"/>
      <point x="1513" y="596" type="curve" smooth="yes"/>
      <point x="1549" y="813"/>
      <point x="1767" y="902"/>
      <point x="1981" y="902" type="curve" smooth="yes"/>
      <point x="2308" y="902"/>
      <point x="2398" y="738"/>
      <point x="2423" y="591" type="curve"/>
      <point x="2423" y="591"/>
      <point x="2424" y="589"/>
      <point x="2424" y="589" type="curve" smooth="yes"/>
    </contour>
    <contour>
      <point x="815" y="108" type="curve" smooth="yes"/>
      <point x="556" y="108"/>
      <point x="349" y="244"/>
      <point x="350" y="504" type="curve" smooth="yes"/>
      <point x="349" y="789"/>
      <point x="572" y="903"/>
      <point x="815" y="903" type="curve" smooth="yes"/>
      <point x="1054" y="903"/>
      <point x="1294" y="791"/>
      <point x="1294" y="504" type="curve" smooth="yes"/>
      <point x="1294" y="241"/>
      <point x="1071" y="108"/>
    </contour>
    <contour>
      <point x="1620" y="1006" type="move" name="top"/>
    </contour>
  </outline>
</glyph>
<glyph name="dotaccent" format="1">
  <advance width="546"/>
  <unicode hex="02D9"/>
  <outline>
    <contour>
      <point x="220" y="1397" type="curve" smooth="yes"/>
      <point x="355" y="1397" type="line" smooth="yes"/>
      <point x="398" y="1397"/>
      <point x="432" y="1431"/>
      <point x="432" y="1474" type="curve" smooth="yes"/>
      <point x="432" y="1617" type="line" smooth="yes"/>
      <point x="432" y="1660"/>
      <point x="398" y="1694"/>
      <point x="355" y="1694" type="curve" smooth="yes"/>
      <point x="220" y="1694" type="line" smooth="yes"/>
      <point x="177" y="1694"/>
      <point x="143" y="1660"/>
      <point x="143" y="1617" type="curve" smooth="yes"/>
      <point x="143" y="1474" type="line" smooth="yes"/>
      <point x="143" y="1431"/>
      <point x="177" y="1397"/>
    </contour>
    <contour>
      <point x="287" y="1006" type="move" name="_top"/>
    </contour>
  </outline>
</glyph>
<glyph name="tilde" format="1">
  <advance width="1644"/>
  <unicode hex="02DC"/>
  <outline>
    <contour>
      <point x="645" y="1596" type="curve" smooth="yes"/>
      <point x="772" y="1596"/>
      <point x="912" y="1683"/>
      <point x="1041" y="1683" type="curve" smooth="yes"/>
      <point x="1099" y="1683"/>
      <point x="1155" y="1674"/>
      <point x="1206" y="1644" type="curve" smooth="yes"/>
      <point x="1215" y="1639"/>
      <point x="1224" y="1639"/>
      <point x="1230" y="1639" type="curve" smooth="yes"/>
      <point x="1254" y="1639"/>
      <point x="1263" y="1672"/>
      <point x="1270" y="1687" type="curve"/>
      <point x="1270" y="1687"/>
      <point x="1289" y="1725"/>
      <point x="1290" y="1730" type="curve" smooth="yes"/>
      <point x="1292" y="1738"/>
      <point x="1294" y="1745"/>
      <point x="1294" y="1750" type="curve" smooth="yes"/>
      <point x="1294" y="1771"/>
      <point x="1280" y="1782"/>
      <point x="1258" y="1793" type="curve" smooth="yes"/>
      <point x="1178" y="1834"/>
      <point x="1106" y="1846"/>
      <point x="1040" y="1846" type="curve" smooth="yes"/>
      <point x="903" y="1846"/>
      <point x="784" y="1763"/>
      <point x="650" y="1763" type="curve" smooth="yes"/>
      <point x="606" y="1763"/>
      <point x="555" y="1775"/>
      <point x="486" y="1811" type="curve" smooth="yes"/>
      <point x="476" y="1816"/>
      <point x="467" y="1819"/>
      <point x="459" y="1819" type="curve" smooth="yes"/>
      <point x="443" y="1819"/>
      <point x="432" y="1808"/>
      <point x="423" y="1786" type="curve" smooth="yes"/>
      <point x="397" y="1729" type="line" smooth="yes"/>
      <point x="395" y="1723"/>
      <point x="394" y="1718"/>
      <point x="394" y="1713" type="curve" smooth="yes"/>
      <point x="394" y="1695"/>
      <point x="407" y="1678"/>
      <point x="428" y="1666" type="curve" smooth="yes"/>
      <point x="517" y="1611"/>
      <point x="585" y="1596"/>
    </contour>
    <contour>
      <point x="844" y="1006" type="move" name="_top"/>
    </contour>
  </outline>
</glyph>
<glyph name="hungarumlaut" format="1">
  <advance width="1781"/>
  <unicode hex="02DD"/>
  <outline>
    <contour>
      <point x="988" y="1006" type="move" name="_top"/>
    </contour>
    <contour>
      <point x="686" y="1456" type="curve" smooth="yes"/>
      <point x="704" y="1456" type="line" smooth="yes"/>
      <point x="742" y="1456"/>
      <point x="745" y="1471"/>
      <point x="760" y="1495" type="curve" smooth="yes"/>
      <point x="961" y="1823" type="line" smooth="yes"/>
      <point x="968" y="1835"/>
      <point x="973" y="1849"/>
      <point x="973" y="1860" type="curve" smooth="yes"/>
      <point x="973" y="1876"/>
      <point x="965" y="1888"/>
      <point x="945" y="1888" type="curve" smooth="yes"/>
      <point x="782" y="1888" type="line" smooth="yes"/>
      <point x="738" y="1888"/>
      <point x="719" y="1876"/>
      <point x="711" y="1833" type="curve" smooth="yes"/>
      <point x="648" y="1523" type="line" smooth="yes"/>
      <point x="645" y="1509"/>
      <point x="644" y="1497"/>
      <point x="644" y="1488" type="curve" smooth="yes"/>
      <point x="644" y="1461"/>
      <point x="657" y="1456"/>
    </contour>
    <contour>
      <point x="1045" y="1456" type="curve" smooth="yes"/>
      <point x="1063" y="1456" type="line" smooth="yes"/>
      <point x="1101" y="1456"/>
      <point x="1104" y="1471"/>
      <point x="1119" y="1495" type="curve" smooth="yes"/>
      <point x="1321" y="1823" type="line" smooth="yes"/>
      <point x="1328" y="1835"/>
      <point x="1333" y="1849"/>
      <point x="1333" y="1860" type="curve" smooth="yes"/>
      <point x="1333" y="1876"/>
      <point x="1325" y="1888"/>
      <point x="1305" y="1888" type="curve" smooth="yes"/>
      <point x="1141" y="1888" type="line" smooth="yes"/>
      <point x="1097" y="1888"/>
      <point x="1078" y="1876"/>
      <point x="1070" y="1833" type="curve" smooth="yes"/>
      <point x="1007" y="1523" type="line" smooth="yes"/>
      <point x="1004" y="1509"/>
      <point x="1003" y="1497"/>
      <point x="1003" y="1488" type="curve" smooth="yes"/>
      <point x="1003" y="1461"/>
      <point x="1016" y="1456"/>
    </contour>
  </outline>
</glyph>
<glyph name="uni0307" format="1">
  <advance width="546"/>
  <unicode hex="0307"/>
  <outline>
    <contour>
      <point x="287" y="1006" type="move" name="_top"/>
    </contour>
    <contour>
      <point x="220" y="1397" type="curve" smooth="yes"/>
      <point x="355" y="1397" type="line" smooth="yes"/>
      <point x="398" y="1397"/>
      <point x="432" y="1431"/>
      <point x="432" y="1474" type="curve" smooth="yes"/>
      <point x="432" y="1617" type="line" smooth="yes"/>
      <point x="432" y="1660"/>
      <point x="398" y="1694"/>
      <point x="355" y="1694" type="curve" smooth="yes"/>
      <point x="220" y="1694" type="line" smooth="yes"/>
      <point x="177" y="1694"/>
      <point x="143" y="1660"/>
      <point x="143" y="1617" type="curve" smooth="yes"/>
      <point x="143" y="1474" type="line" smooth="yes"/>
      <point x="143" y="1431"/>
      <point x="177" y="1397"/>
    </contour>
  </outline>
</glyph>
<glyph name="uni030F" format="1">
  <advance width="1781"/>
  <unicode hex="030F"/>
  <outline>
    <contour>
      <point x="791" y="1006" type="move" name="_top"/>
    </contour>
    <contour>
      <point x="716" y="1456" type="curve" smooth="yes"/>
      <point x="734" y="1456" type="line" smooth="yes"/>
      <point x="763" y="1456"/>
      <point x="776" y="1461"/>
      <point x="776" y="1488" type="curve" smooth="yes"/>
      <point x="776" y="1497"/>
      <point x="775" y="1509"/>
      <point x="772" y="1523" type="curve" smooth="yes"/>
      <point x="710" y="1832" type="line" smooth="yes"/>
      <point x="702" y="1875"/>
      <point x="682" y="1887"/>
      <point x="638" y="1887" type="curve" smooth="yes"/>
      <point x="475" y="1887" type="line" smooth="yes"/>
      <point x="455" y="1887"/>
      <point x="447" y="1875"/>
      <point x="447" y="1859" type="curve" smooth="yes"/>
      <point x="447" y="1848"/>
      <point x="452" y="1834"/>
      <point x="459" y="1822" type="curve" smooth="yes"/>
      <point x="660" y="1495" type="line" smooth="yes"/>
      <point x="675" y="1471"/>
      <point x="678" y="1456"/>
    </contour>
    <contour>
      <point x="1076" y="1456" type="curve" smooth="yes"/>
      <point x="1094" y="1456" type="line" smooth="yes"/>
      <point x="1123" y="1456"/>
      <point x="1136" y="1461"/>
      <point x="1136" y="1488" type="curve" smooth="yes"/>
      <point x="1136" y="1497"/>
      <point x="1135" y="1509"/>
      <point x="1132" y="1523" type="curve" smooth="yes"/>
      <point x="1068" y="1832" type="line" smooth="yes"/>
      <point x="1060" y="1875"/>
      <point x="1042" y="1887"/>
      <point x="998" y="1887" type="curve" smooth="yes"/>
      <point x="835" y="1887" type="line" smooth="yes"/>
      <point x="815" y="1887"/>
      <point x="807" y="1875"/>
      <point x="807" y="1859" type="curve" smooth="yes"/>
      <point x="807" y="1848"/>
      <point x="812" y="1834"/>
      <point x="819" y="1822" type="curve" smooth="yes"/>
      <point x="1020" y="1495" type="line" smooth="yes"/>
      <point x="1035" y="1471"/>
      <point x="1038" y="1456"/>
    </contour>
  </outline>
</glyph>
<glyph name="emdash" format="1">
  <advance width="2048"/>
  <unicode hex="2014"/>
  <outline>
    <contour>
      <point x="181" y="489" type="curve" smooth="yes"/>
      <point x="1871" y="489" type="line" smooth="yes"/>
      <point x="1915" y="489"/>
      <point x="1927" y="502"/>
      <point x="1927" y="545" type="curve" smooth="yes"/>
      <point x="1927" y="593" type="line" smooth="yes"/>
      <point x="1927" y="637"/>
      <point x="1915" y="650"/>
      <point x="1871" y="650" type="curve" smooth="yes"/>
      <point x="181" y="650" type="line" smooth="yes"/>
      <point x="137" y="650"/>
      <point x="121" y="637"/>
      <point x="121" y="593" type="curve" smooth="yes"/>
      <point x="121" y="546" type="line" smooth="yes"/>
      <point x="121" y="502"/>
      <point x="137" y="489"/>
    </contour>
  </outline>
</glyph>
<glyph name="quotedblleft" format="1">
  <advance width="1130"/>
  <unicode hex="201C"/>
  <outline>
    <contour>
      <point x="226" y="914" type="curve" smooth="yes"/>
      <point x="422" y="914" type="line" smooth="yes"/>
      <point x="465" y="914"/>
      <point x="482" y="935"/>
      <point x="482" y="978" type="curve" smooth="yes"/>
      <point x="482" y="1181" type="line" smooth="yes"/>
      <point x="482" y="1219"/>
      <point x="460" y="1230"/>
      <point x="422" y="1230" type="curve" smooth="yes"/>
      <point x="337" y="1230" type="line" smooth="yes"/>
      <point x="322" y="1230"/>
      <point x="320" y="1241"/>
      <point x="320" y="1257" type="curve" smooth="yes"/>
      <point x="320" y="1281"/>
      <point x="352" y="1358"/>
      <point x="421" y="1401" type="curve" smooth="yes"/>
      <point x="464" y="1428"/>
      <point x="482" y="1422"/>
      <point x="482" y="1476" type="curve" smooth="yes"/>
      <point x="482" y="1485" type="line" smooth="yes"/>
      <point x="482" y="1521"/>
      <point x="451" y="1536"/>
      <point x="416" y="1530" type="curve" smooth="yes"/>
      <point x="278" y="1507"/>
      <point x="149" y="1371"/>
      <point x="149" y="1134" type="curve" smooth="yes"/>
      <point x="149" y="991" type="line" smooth="yes"/>
      <point x="149" y="948"/>
      <point x="183" y="914"/>
    </contour>
    <contour>
      <point x="698" y="914" type="curve" smooth="yes"/>
      <point x="894" y="914" type="line" smooth="yes"/>
      <point x="937" y="914"/>
      <point x="954" y="935"/>
      <point x="954" y="978" type="curve" smooth="yes"/>
      <point x="954" y="1181" type="line" smooth="yes"/>
      <point x="954" y="1219"/>
      <point x="932" y="1230"/>
      <point x="894" y="1230" type="curve" smooth="yes"/>
      <point x="809" y="1230" type="line" smooth="yes"/>
      <point x="794" y="1230"/>
      <point x="792" y="1241"/>
      <point x="792" y="1257" type="curve" smooth="yes"/>
      <point x="792" y="1281"/>
      <point x="825" y="1358"/>
      <point x="894" y="1401" type="curve" smooth="yes"/>
      <point x="937" y="1428"/>
      <point x="954" y="1422"/>
      <point x="954" y="1476" type="curve" smooth="yes"/>
      <point x="954" y="1485" type="line" smooth="yes"/>
      <point x="954" y="1521"/>
      <point x="924" y="1536"/>
      <point x="889" y="1530" type="curve" smooth="yes"/>
      <point x="751" y="1507"/>
      <point x="621" y="1371"/>
      <point x="621" y="1134" type="curve" smooth="yes"/>
      <point x="621" y="991" type="line" smooth="yes"/>
      <point x="621" y="948"/>
      <point x="655" y="914"/>
    </contour>
  </outline>
</glyph>
<glyph name="quotedblright" format="1">
  <advance width="1082"/>
  <unicode hex="201D"/>
  <outline>
    <contour>
      <point x="216" y="920" type="curve" smooth="yes"/>
      <point x="354" y="943"/>
      <point x="483" y="1080"/>
      <point x="483" y="1317" type="curve" smooth="yes"/>
      <point x="483" y="1460" type="line" smooth="yes"/>
      <point x="483" y="1503"/>
      <point x="449" y="1537"/>
      <point x="406" y="1537" type="curve" smooth="yes"/>
      <point x="210" y="1537" type="line" smooth="yes"/>
      <point x="167" y="1537"/>
      <point x="150" y="1516"/>
      <point x="150" y="1473" type="curve" smooth="yes"/>
      <point x="150" y="1270" type="line" smooth="yes"/>
      <point x="150" y="1232"/>
      <point x="172" y="1220"/>
      <point x="210" y="1220" type="curve" smooth="yes"/>
      <point x="295" y="1220" type="line" smooth="yes"/>
      <point x="310" y="1220"/>
      <point x="312" y="1209"/>
      <point x="312" y="1193" type="curve" smooth="yes"/>
      <point x="312" y="1169"/>
      <point x="280" y="1092"/>
      <point x="211" y="1049" type="curve" smooth="yes"/>
      <point x="168" y="1022"/>
      <point x="150" y="1028"/>
      <point x="150" y="974" type="curve" smooth="yes"/>
      <point x="150" y="965" type="line" smooth="yes"/>
      <point x="150" y="929"/>
      <point x="181" y="914"/>
    </contour>
    <contour>
      <point x="665" y="920" type="curve" smooth="yes"/>
      <point x="803" y="943"/>
      <point x="933" y="1080"/>
      <point x="933" y="1317" type="curve" smooth="yes"/>
      <point x="933" y="1460" type="line" smooth="yes"/>
      <point x="933" y="1503"/>
      <point x="898" y="1537"/>
      <point x="855" y="1537" type="curve" smooth="yes"/>
      <point x="659" y="1537" type="line" smooth="yes"/>
      <point x="616" y="1537"/>
      <point x="599" y="1516"/>
      <point x="599" y="1473" type="curve" smooth="yes"/>
      <point x="599" y="1270" type="line" smooth="yes"/>
      <point x="599" y="1232"/>
      <point x="621" y="1220"/>
      <point x="659" y="1220" type="curve" smooth="yes"/>
      <point x="744" y="1220" type="line" smooth="yes"/>
      <point x="759" y="1220"/>
      <point x="761" y="1209"/>
      <point x="761" y="1193" type="curve" smooth="yes"/>
      <point x="761" y="1169"/>
      <point x="729" y="1092"/>
      <point x="660" y="1049" type="curve" smooth="yes"/>
      <point x="617" y="1022"/>
      <point x="599" y="1028"/>
      <point x="599" y="974" type="curve" smooth="yes"/>
      <point x="599" y="965" type="line" smooth="yes"/>
      <point x="599" y="929"/>
      <point x="630" y="914"/>
    </contour>
  </outline>
</glyph>
<glyph name="uniFB01" format="1">
  <advance width="1724"/>
  <unicode hex="FB01"/>
  <outline>
    <contour>
      <point x="438" y="0" type="curve" smooth="yes"/>
      <point x="502" y="0" type="line" smooth="yes"/>
      <point x="545" y="0"/>
      <point x="579" y="34"/>
      <point x="579" y="77" type="curve" smooth="yes"/>
      <point x="579" y="823" type="line" smooth="yes"/>
      <point x="579" y="843"/>
      <point x="582" y="860"/>
      <point x="602" y="860" type="curve" smooth="yes"/>
      <point x="1347" y="860" type="line"/>
      <point x="1347" y="67" type="line" smooth="yes"/>
      <point x="1347" y="24"/>
      <point x="1370" y="0"/>
      <point x="1413" y="0" type="curve" smooth="yes"/>
      <point x="1498" y="0" type="line" smooth="yes"/>
      <point x="1541" y="0"/>
      <point x="1565" y="24"/>
      <point x="1565" y="67" type="curve" smooth="yes"/>
      <point x="1565" y="939" type="line" smooth="yes"/>
      <point x="1565" y="982"/>
      <point x="1541" y="1006"/>
      <point x="1498" y="1006" type="curve" smooth="yes"/>
      <point x="591" y="1006" type="line" smooth="yes"/>
      <point x="581" y="1006"/>
      <point x="579" y="1014"/>
      <point x="579" y="1017" type="curve" smooth="yes"/>
      <point x="579" y="1060" type="line" smooth="yes"/>
      <point x="579" y="1200"/>
      <point x="616" y="1327"/>
      <point x="839" y="1327" type="curve" smooth="yes"/>
      <point x="905" y="1327"/>
      <point x="1041" y="1293"/>
      <point x="1046" y="1293" type="curve" smooth="yes"/>
      <point x="1080" y="1293"/>
      <point x="1087" y="1300"/>
      <point x="1087" y="1337" type="curve" smooth="yes"/>
      <point x="1087" y="1388" type="line" smooth="yes"/>
      <point x="1087" y="1416"/>
      <point x="1065" y="1431"/>
      <point x="1037" y="1438" type="curve"/>
      <point x="1021" y="1441"/>
      <point x="900" y="1475"/>
      <point x="786" y="1475" type="curve" smooth="yes"/>
      <point x="574" y="1475"/>
      <point x="361" y="1381"/>
      <point x="362" y="1041" type="curve" smooth="yes"/>
      <point x="362" y="1019"/>
      <point x="361" y="1006"/>
      <point x="339" y="1006" type="curve" smooth="yes"/>
      <point x="189" y="1006" type="line" smooth="yes"/>
      <point x="146" y="1006"/>
      <point x="122" y="988"/>
      <point x="122" y="945" type="curve" smooth="yes"/>
      <point x="122" y="912" type="line" smooth="yes"/>
      <point x="122" y="869"/>
      <point x="146" y="860"/>
      <point x="189" y="860" type="curve" smooth="yes"/>
      <point x="341" y="860" type="line" smooth="yes"/>
      <point x="361" y="860"/>
      <point x="361" y="843"/>
      <point x="361" y="823" type="curve" smooth="yes"/>
      <point x="361" y="77" type="line" smooth="yes"/>
      <point x="361" y="34"/>
      <point x="395" y="0"/>
    </contour>
    <contour>
      <point x="1413" y="1180" type="curve" smooth="yes"/>
      <point x="1498" y="1180" type="line" smooth="yes"/>
      <point x="1541" y="1180"/>
      <point x="1565" y="1203"/>
      <point x="1565" y="1246" type="curve" smooth="yes"/>
      <point x="1565" y="1341" type="line" smooth="yes"/>
      <point x="1565" y="1384"/>
      <point x="1541" y="1408"/>
      <point x="1498" y="1408" type="curve" smooth="yes"/>
      <point x="1413" y="1408" type="line" smooth="yes"/>
      <point x="1370" y="1408"/>
      <point x="1347" y="1384"/>
      <point x="1347" y="1341" type="curve" smooth="yes"/>
      <point x="1347" y="1246" type="line" smooth="yes"/>
      <point x="1347" y="1203"/>
      <point x="1370" y="1180"/>
    </contour>
  </outline>
</glyph>
<glyph name="uniFB00" format="1">
  <advance width="2051"/>
  <outline>
    <contour>
      <point x="438" y="0" type="curve" smooth="yes"/>
      <point x="502" y="0" type="line" smooth="yes"/>
      <point x="545" y="0"/>
      <point x="579" y="34"/>
      <point x="579" y="77" type="curve" smooth="yes"/>
      <point x="579" y="823" type="line" smooth="yes"/>
      <point x="579" y="843"/>
      <point x="582" y="860"/>
      <point x="602" y="860" type="curve" smooth="yes"/>
      <point x="1174" y="860" type="line" smooth="yes"/>
      <point x="1194" y="860"/>
      <point x="1194" y="843"/>
      <point x="1194" y="823" type="curve" smooth="yes"/>
      <point x="1194" y="77" type="line" smooth="yes"/>
      <point x="1194" y="34"/>
      <point x="1228" y="0"/>
      <point x="1271" y="0" type="curve" smooth="yes"/>
      <point x="1334" y="0" type="line" smooth="yes"/>
      <point x="1377" y="0"/>
      <point x="1411" y="34"/>
      <point x="1411" y="77" type="curve" smooth="yes"/>
      <point x="1411" y="823" type="line" smooth="yes"/>
      <point x="1411" y="843"/>
      <point x="1414" y="860"/>
      <point x="1434" y="860" type="curve" smooth="yes"/>
      <point x="1828" y="860" type="line" smooth="yes"/>
      <point x="1871" y="860"/>
      <point x="1895" y="869"/>
      <point x="1895" y="912" type="curve" smooth="yes"/>
      <point x="1895" y="951" type="line" smooth="yes"/>
      <point x="1895" y="994"/>
      <point x="1871" y="1006"/>
      <point x="1828" y="1006" type="curve" smooth="yes"/>
      <point x="1424" y="1006" type="line" smooth="yes"/>
      <point x="1413" y="1006"/>
      <point x="1411" y="1014"/>
      <point x="1411" y="1017" type="curve" smooth="yes"/>
      <point x="1411" y="1060" type="line" smooth="yes"/>
      <point x="1411" y="1200"/>
      <point x="1449" y="1327"/>
      <point x="1671" y="1327" type="curve" smooth="yes"/>
      <point x="1737" y="1327"/>
      <point x="1873" y="1293"/>
      <point x="1878" y="1293" type="curve" smooth="yes"/>
      <point x="1912" y="1293"/>
      <point x="1919" y="1300"/>
      <point x="1919" y="1337" type="curve" smooth="yes"/>
      <point x="1919" y="1388" type="line" smooth="yes"/>
      <point x="1919" y="1416"/>
      <point x="1897" y="1431"/>
      <point x="1869" y="1438" type="curve"/>
      <point x="1854" y="1441"/>
      <point x="1732" y="1475"/>
      <point x="1619" y="1475" type="curve" smooth="yes"/>
      <point x="1407" y="1475"/>
      <point x="1194" y="1381"/>
      <point x="1195" y="1041" type="curve" smooth="yes"/>
      <point x="1195" y="1019"/>
      <point x="1194" y="1006"/>
      <point x="1172" y="1006" type="curve" smooth="yes"/>
      <point x="591" y="1006" type="line" smooth="yes"/>
      <point x="581" y="1006"/>
      <point x="579" y="1014"/>
      <point x="579" y="1017" type="curve" smooth="yes"/>
      <point x="579" y="1060" type="line" smooth="yes"/>
      <point x="579" y="1200"/>
      <point x="616" y="1327"/>
      <point x="839" y="1327" type="curve" smooth="yes"/>
      <point x="905" y="1327"/>
      <point x="1041" y="1293"/>
      <point x="1046" y="1293" type="curve" smooth="yes"/>
      <point x="1080" y="1293"/>
      <point x="1087" y="1300"/>
      <point x="1087" y="1337" type="curve" smooth="yes"/>
      <point x="1087" y="1388" type="line" smooth="yes"/>
      <point x="1087" y="1416"/>
      <point x="1065" y="1431"/>
      <point x="1037" y="1438" type="curve"/>
      <point x="1021" y="1441"/>
      <point x="900" y="1475"/>
      <point x="786" y="1475" type="curve" smooth="yes"/>
      <point x="574" y="1475"/>
      <point x="361" y="1381"/>
      <point x="362" y="1041" type="curve" smooth="yes"/>
      <point x="362" y="1019"/>
      <point x="361" y="1006"/>
      <point x="339" y="1006" type="curve" smooth="yes"/>
      <point x="189" y="1006" type="line" smooth="yes"/>
      <point x="146" y="1006"/>
      <point x="122" y="988"/>
      <point x="122" y="945" type="curve" smooth="yes"/>
      <point x="122" y="912" type="line" smooth="yes"/>
      <point x="122" y="869"/>
      <point x="146" y="860"/>
      <point x="189" y="860" type="curve" smooth="yes"/>
      <point x="341" y="860" type="line" smooth="yes"/>
      <point x="361" y="860"/>
      <point x="361" y="843"/>
      <point x="361" y="823" type="curve" smooth="yes"/>
      <point x="361" y="77" type="line" smooth="yes"/>
      <point x="361" y="34"/>
      <point x="395" y="0"/>
    </contour>
  </outline>
</glyph>
<glyph name="uniFB04" format="1">
  <advance width="2502"/>
  <outline>
    <contour>
      <point x="438" y="0" type="curve" smooth="yes"/>
      <point x="502" y="0" type="line" smooth="yes"/>
      <point x="545" y="0"/>
      <point x="579" y="34"/>
      <point x="579" y="77" type="curve" smooth="yes"/>
      <point x="579" y="823" type="line" smooth="yes"/>
      <point x="579" y="843"/>
      <point x="582" y="860"/>
      <point x="602" y="860" type="curve" smooth="yes"/>
      <point x="1189" y="860" type="line" smooth="yes"/>
      <point x="1209" y="860"/>
      <point x="1209" y="843"/>
      <point x="1209" y="823" type="curve" smooth="yes"/>
      <point x="1209" y="77" type="line" smooth="yes"/>
      <point x="1209" y="34"/>
      <point x="1243" y="0"/>
      <point x="1286" y="0" type="curve" smooth="yes"/>
      <point x="1349" y="0" type="line" smooth="yes"/>
      <point x="1392" y="0"/>
      <point x="1426" y="34"/>
      <point x="1426" y="77" type="curve" smooth="yes"/>
      <point x="1426" y="823" type="line" smooth="yes"/>
      <point x="1426" y="843"/>
      <point x="1429" y="860"/>
      <point x="1449" y="860" type="curve" smooth="yes"/>
      <point x="1822" y="860" type="line" smooth="yes"/>
      <point x="1865" y="860"/>
      <point x="1889" y="869"/>
      <point x="1889" y="912" type="curve" smooth="yes"/>
      <point x="1889" y="951" type="line" smooth="yes"/>
      <point x="1889" y="994"/>
      <point x="1865" y="1006"/>
      <point x="1822" y="1006" type="curve" smooth="yes"/>
      <point x="1439" y="1006" type="line" smooth="yes"/>
      <point x="1428" y="1006"/>
      <point x="1426" y="1014"/>
      <point x="1426" y="1017" type="curve" smooth="yes"/>
      <point x="1426" y="1060" type="line" smooth="yes"/>
      <point x="1426" y="1200"/>
      <point x="1484" y="1327"/>
      <point x="1820" y="1327" type="curve" smooth="yes"/>
      <point x="1901" y="1327"/>
      <point x="2040" y="1311"/>
      <point x="2123" y="1301" type="curve"/>
      <point x="2123" y="67" type="line" smooth="yes"/>
      <point x="2123" y="24"/>
      <point x="2147" y="0"/>
      <point x="2190" y="0" type="curve" smooth="yes"/>
      <point x="2275" y="0" type="line" smooth="yes"/>
      <point x="2318" y="0"/>
      <point x="2342" y="24"/>
      <point x="2342" y="67" type="curve" smooth="yes"/>
      <point x="2342" y="1352" type="line" smooth="yes"/>
      <point x="2342" y="1395"/>
      <point x="2318" y="1414"/>
      <point x="2275" y="1419" type="curve" smooth="yes"/>
      <point x="2168" y="1441"/>
      <point x="2049" y="1475"/>
      <point x="1767" y="1475" type="curve" smooth="yes"/>
      <point x="1489" y="1475"/>
      <point x="1209" y="1381"/>
      <point x="1210" y="1041" type="curve" smooth="yes"/>
      <point x="1210" y="1019"/>
      <point x="1209" y="1006"/>
      <point x="1187" y="1006" type="curve" smooth="yes"/>
      <point x="591" y="1006" type="line" smooth="yes"/>
      <point x="581" y="1006"/>
      <point x="579" y="1014"/>
      <point x="579" y="1017" type="curve" smooth="yes"/>
      <point x="579" y="1060" type="line" smooth="yes"/>
      <point x="579" y="1200"/>
      <point x="616" y="1327"/>
      <point x="839" y="1327" type="curve" smooth="yes"/>
      <point x="905" y="1327"/>
      <point x="1041" y="1293"/>
      <point x="1046" y="1293" type="curve" smooth="yes"/>
      <point x="1080" y="1293"/>
      <point x="1087" y="1300"/>
      <point x="1087" y="1337" type="curve" smooth="yes"/>
      <point x="1087" y="1388" type="line" smooth="yes"/>
      <point x="1087" y="1416"/>
      <point x="1065" y="1431"/>
      <point x="1037" y="1438" type="curve"/>
      <point x="1021" y="1441"/>
      <point x="900" y="1475"/>
      <point x="786" y="1475" type="curve" smooth="yes"/>
      <point x="574" y="1475"/>
      <point x="361" y="1381"/>
      <point x="362" y="1041" type="curve" smooth="yes"/>
      <point x="362" y="1019"/>
      <point x="361" y="1006"/>
      <point x="339" y="1006" type="curve" smooth="yes"/>
      <point x="189" y="1006" type="line" smooth="yes"/>
      <point x="146" y="1006"/>
      <point x="122" y="988"/>
      <point x="122" y="945" type="curve" smooth="yes"/>
      <point x="122" y="912" type="line" smooth="yes"/>
      <point x="122" y="869"/>
      <point x="146" y="860"/>
      <point x="189" y="860" type="curve" smooth="yes"/>
      <point x="341" y="860" type="line" smooth="yes"/>
      <point x="361" y="860"/>
      <point x="361" y="843"/>
      <point x="361" y="823" type="curve" smooth="yes"/>
      <point x="361" y="77" type="line" smooth="yes"/>
      <point x="361" y="34"/>
      <point x="395" y="0"/>
    </contour>
  </outline>
</glyph>
